<?xml version="1.0" encoding="UTF-8" standalone="no"?>
<svg
   xmlns:dc="http://purl.org/dc/elements/1.1/"
   xmlns:cc="http://creativecommons.org/ns#"
   xmlns:rdf="http://www.w3.org/1999/02/22-rdf-syntax-ns#"
   xmlns:svg="http://www.w3.org/2000/svg"
   xmlns="http://www.w3.org/2000/svg"
   xmlns:sodipodi="http://sodipodi.sourceforge.net/DTD/sodipodi-0.dtd"
   xmlns:inkscape="http://www.inkscape.org/namespaces/inkscape"
   height="57.750198"
   width="225.73967"
   inkscape:version="1.0 (4035a4fb49, 2020-05-01)"
   sodipodi:docname="BurrowGroveLogowithTextInverted.svg"
   id="svg23"
   version="1.1"
   class="iconLeftSlogan"
   viewBox="0 0 225.73967 57.750198"
   data-v-fde0c5aa="">
  <metadata
     id="metadata27">
    <rdf:RDF>
      <cc:Work
         rdf:about="">
        <dc:format>image/svg+xml</dc:format>
        <dc:type
           rdf:resource="http://purl.org/dc/dcmitype/StillImage" />
        <dc:title></dc:title>
      </cc:Work>
    </rdf:RDF>
  </metadata>
  <sodipodi:namedview
     inkscape:current-layer="layer2"
     inkscape:window-maximized="1"
     inkscape:window-y="50"
     inkscape:window-x="1432"
     inkscape:cy="105.04772"
     inkscape:cx="80.753266"
     inkscape:zoom="1.9686996"
     showgrid="false"
     id="namedview25"
     inkscape:window-height="705"
     inkscape:window-width="1360"
     inkscape:pageshadow="2"
     inkscape:pageopacity="0"
     guidetolerance="10"
     gridtolerance="10"
     objecttolerance="10"
     borderopacity="1"
     bordercolor="#666666"
     pagecolor="#ffffff" />
  <!---->
  <defs
     id="defs2"
     data-v-fde0c5aa="">
    <!---->
  </defs>
  <defs
     id="defs6"
     data-v-fde0c5aa="">
    <!---->
  </defs>
  <defs
     id="defs11"
     data-v-fde0c5aa="">
    <!---->
  </defs>
  <defs
     id="defs18"
     data-v-fde0c5aa="">
    <!---->
  </defs>
  <g
     inkscape:label="Icon"
     id="layer1"
     inkscape:groupmode="layer" />
  <g
     inkscape:label="Text"
     id="layer2"
     inkscape:groupmode="layer">
    <rect
       y="-0.23675437"
       x="-0.00016784668"
       height="58.066448"
       width="225.74001"
       id="rect1789"
       style="fill:#7d7d7d;fill-opacity:1;stroke:none;stroke-width:2.39768;stroke-opacity:1" />
    <g
       style="fill:none;fill-opacity:1;stroke:#ffffff;stroke-width:1.00082;stroke-miterlimit:4;stroke-dasharray:none;stroke-opacity:1"
       inkscape:label="Layer 1"
       id="layer1-1"
       transform="matrix(0.28256972,0,0,0.34172781,-4.535977,-22.765731)">
      <path
         style="fill:none;fill-opacity:1;stroke:#ffffff;stroke-width:1.00082;stroke-linecap:butt;stroke-linejoin:miter;stroke-miterlimit:4;stroke-dasharray:none;stroke-opacity:1"
         d="m 116.41667,145.52099 v 0 l -0.0142,45.14583 13.82324,-0.36569 9.98092,7.77414 v 0"
         id="path54"
         sodipodi:nodetypes="cccccc" />
      <path
         style="fill:none;fill-opacity:1;stroke:#ffffff;stroke-width:1.00082;stroke-linecap:butt;stroke-linejoin:miter;stroke-miterlimit:4;stroke-dasharray:none;stroke-opacity:1"
         d="m 105.83333,145.52099 c -0.31578,44.88122 0,44.97931 0,44.97931 H 92.604167 v 0 l -4.934943,5.46576 -13.585889,1.48369"
         id="path56"
         inkscape:transform-center-x="-0.50864864"
         inkscape:transform-center-y="2.2033289"
         sodipodi:nodetypes="cccccc" />
      <path
         style="fill:none;fill-opacity:1;stroke:#ffffff;stroke-width:1.00082;stroke-linecap:butt;stroke-linejoin:miter;stroke-miterlimit:4;stroke-dasharray:none;stroke-opacity:1"
         d="M 109.99107,204.48545 Z"
         id="path58" />
      <path
         style="fill:none;fill-opacity:1;stroke:#ffffff;stroke-width:1.00082;stroke-linecap:butt;stroke-linejoin:miter;stroke-miterlimit:4;stroke-dasharray:none;stroke-opacity:1"
         d="M 109.99107,204.48545 Z"
         id="path60" />
      <path
         style="fill:none;fill-opacity:1;stroke:#ffffff;stroke-width:1.00082;stroke-linecap:butt;stroke-linejoin:miter;stroke-miterlimit:4;stroke-dasharray:none;stroke-opacity:1"
         d="M 105.83333,195.79198 C 89.958333,206.37534 89.958333,206.37534 89.958333,206.37534 H 79.375 v 0 0"
         id="path64" />
      <path
         style="fill:none;fill-opacity:1;stroke:#ffffff;stroke-width:1.00082;stroke-linecap:butt;stroke-linejoin:miter;stroke-miterlimit:4;stroke-dasharray:none;stroke-opacity:1"
         d="M 148.16666,211.66701 Z"
         id="path68" />
      <path
         style="fill:none;fill-opacity:1;stroke:#ffffff;stroke-width:1.00082;stroke-linecap:butt;stroke-linejoin:miter;stroke-miterlimit:4;stroke-dasharray:none;stroke-opacity:1"
         d="m 97.895832,195.79197 c -10.583333,5.29168 -10.583333,5.29168 -10.583333,5.29168 -5.291666,0 -5.291666,0 -5.291666,0"
         id="path70" />
      <path
         style="fill:none;fill-opacity:1;stroke:#ffffff;stroke-width:1.00082;stroke-linecap:butt;stroke-linejoin:miter;stroke-miterlimit:4;stroke-dasharray:none;stroke-opacity:1"
         d="m 116.41667,195.79197 c 0,10.58337 0,10.58337 0,10.58337 0,0 0,0 0,0 v 0 l 7.9375,2.64583 v 0 L 127,214.31286"
         id="path72" />
      <path
         style="fill:none;fill-opacity:1;stroke:#ffffff;stroke-width:1.00082;stroke-linecap:butt;stroke-linejoin:miter;stroke-miterlimit:4;stroke-dasharray:none;stroke-opacity:1"
         d="M 145.52083,209.02117 Z"
         id="path74" />
      <path
         style="fill:none;fill-opacity:1;stroke:#ffffff;stroke-width:1.00082;stroke-linecap:butt;stroke-linejoin:miter;stroke-miterlimit:4;stroke-dasharray:none;stroke-opacity:1"
         d="M 121.70833,195.79197 C 127,203.72949 127,203.72949 127,203.72949 c 0,0 0,0 0,0 v 0 c 0,0 0,0 0,0 v 0 h 7.9375 v 0 l 5.29166,5.29168 v 0"
         id="path76" />
      <path
         style="fill:none;fill-opacity:1;stroke:#ffffff;stroke-width:1.00082;stroke-linecap:butt;stroke-linejoin:miter;stroke-miterlimit:4;stroke-dasharray:none;stroke-opacity:1"
         d="m 127,193.14613 c 5.29166,5.29169 5.29166,5.29169 5.29166,5.29169"
         id="path78" />
      <path
         style="fill:none;fill-opacity:1;stroke:#ffffff;stroke-width:1.00082;stroke-linecap:butt;stroke-linejoin:miter;stroke-miterlimit:4;stroke-dasharray:none;stroke-opacity:1"
         d="m 111.125,198.43782 c -2.64583,7.93752 -2.64583,7.93752 -2.64583,7.93752 0,0 0,0 0,0 v 0 l -7.9375,5.29167 v 0 h -5.291671 v 0"
         id="path80" />
      <path
         style="fill:none;fill-opacity:1;stroke:#ffffff;stroke-width:1.00082;stroke-linecap:butt;stroke-linejoin:miter;stroke-miterlimit:4;stroke-dasharray:none;stroke-opacity:1"
         d="M 113.77083,216.95869 Z"
         id="path82" />
      <path
         style="fill:none;fill-opacity:1;stroke:#ffffff;stroke-width:1.00082;stroke-linecap:butt;stroke-linejoin:miter;stroke-miterlimit:4;stroke-dasharray:none;stroke-opacity:1"
         d="M 142.875,158.7502 Z"
         id="path86" />
      <path
         style="fill:none;fill-opacity:1;stroke:#ffffff;stroke-width:1.00082;stroke-linecap:butt;stroke-linejoin:miter;stroke-miterlimit:4;stroke-dasharray:none;stroke-opacity:1"
         d="m 111.125,145.52099 c 0,44.97931 0,44.97931 0,44.97931"
         id="path88" />
      <path
         style="fill:none;fill-opacity:1;stroke:#ffffff;stroke-width:1.00082;stroke-linecap:butt;stroke-linejoin:miter;stroke-miterlimit:4;stroke-dasharray:none;stroke-opacity:1"
         d="m 116.4132,145.53391 10.31955,-5.30485 v 1.6e-4 h 10.80177 v 0 l 5.40088,-5.30485 v 0"
         id="path90"
         sodipodi:nodetypes="ccccccc" />
      <path
         style="fill:none;fill-opacity:1;stroke:#ffffff;stroke-width:1.00082;stroke-linecap:butt;stroke-linejoin:miter;stroke-miterlimit:4;stroke-dasharray:none;stroke-opacity:1"
         d="m 111.125,145.52083 -7.9375,-13.8905 v -9.9219 0"
         id="path94"
         sodipodi:nodetypes="cccc" />
      <path
         style="fill:none;fill-opacity:1;stroke:#ffffff;stroke-width:1.00082;stroke-linecap:butt;stroke-linejoin:miter;stroke-miterlimit:4;stroke-dasharray:none;stroke-opacity:1"
         d="m 103.1875,113.77092 c 0,-7.93754 0,-7.93754 0,-7.93754"
         id="path96" />
      <path
         style="fill:none;fill-opacity:1;stroke:#ffffff;stroke-width:1.00082;stroke-linecap:butt;stroke-linejoin:miter;stroke-miterlimit:4;stroke-dasharray:none;stroke-opacity:1"
         d="m 119.0625,108.47923 c -5.29167,-5.29169 -5.29167,-5.29169 -5.29167,-5.29169 v -7.937518 0 l -7.9375,-5.29168 v 0"
         id="path98" />
      <path
         style="fill:none;fill-opacity:1;stroke:#ffffff;stroke-width:1.00082;stroke-linecap:butt;stroke-linejoin:miter;stroke-miterlimit:4;stroke-dasharray:none;stroke-opacity:1"
         d="m 116.41667,137.58347 c 0,-19.8438 0,-19.8438 0,-19.8438 L 127,111.12507"
         id="path100" />
      <path
         style="fill:none;fill-opacity:1;stroke:#ffffff;stroke-width:1.00082;stroke-linecap:butt;stroke-linejoin:miter;stroke-miterlimit:4;stroke-dasharray:none;stroke-opacity:1"
         d="m 125.23611,133.55608 c 0,-8.56966 0,-8.56966 0,-8.56966 v 0 l 7.05556,-2.85654 v 0 -5.71312 l 10.58335,-5.71311 v -8.56964"
         id="path102" />
      <path
         style="fill:none;fill-opacity:1;stroke:#ffffff;stroke-width:1.00082;stroke-linecap:butt;stroke-linejoin:miter;stroke-miterlimit:4;stroke-dasharray:none;stroke-opacity:1"
         d="m 127,105.83338 c 0,-10.583358 0,-10.583358 0,-10.583358 l 10.58333,-7.937526 v 0"
         id="path104" />
      <path
         style="fill:none;fill-opacity:1;stroke:#ffffff;stroke-width:1.00082;stroke-linecap:butt;stroke-linejoin:miter;stroke-miterlimit:4;stroke-dasharray:none;stroke-opacity:1"
         d="M 97.895833,100.5417 C 87.312496,89.958342 87.312496,89.958342 87.312496,89.958342"
         id="path106" />
      <path
         style="fill:none;fill-opacity:1;stroke:#ffffff;stroke-width:1.00082;stroke-linecap:butt;stroke-linejoin:miter;stroke-miterlimit:4;stroke-dasharray:none;stroke-opacity:1"
         d="m 134.9375,132.29179 c 7.9375,-7.93751 7.9375,-7.93751 7.9375,-7.93751 v 0 c 0,0 0,0 0,0 v 0 h 10.58334 l 7.9375,-7.93752 v 0"
         id="path108" />
      <path
         style="fill:none;fill-opacity:1;stroke:#ffffff;stroke-width:1.00082;stroke-linecap:butt;stroke-linejoin:miter;stroke-miterlimit:4;stroke-dasharray:none;stroke-opacity:1"
         d="m 145.52083,116.41676 c 7.9375,-7.93753 7.9375,-7.93753 7.9375,-7.93753 l 10.58333,-2.64585"
         id="path110" />
      <path
         style="fill:none;fill-opacity:1;stroke:#ffffff;stroke-width:1.00082;stroke-linecap:butt;stroke-linejoin:miter;stroke-miterlimit:4;stroke-dasharray:none;stroke-opacity:1"
         d="m 122.26582,152.4775 c 5.01347,-3.1851 5.01347,-3.1851 5.01347,-3.1851 l 9.23237,1.52973 5.41075,-7.13504 v 0"
         id="path114"
         inkscape:transform-center-x="0.16610485"
         inkscape:transform-center-y="-0.2067891" />
      <path
         style="fill:none;fill-opacity:1;stroke:#ffffff;stroke-width:1.00082;stroke-linecap:butt;stroke-linejoin:miter;stroke-miterlimit:4;stroke-dasharray:none;stroke-opacity:1"
         d="M 105.83333,145.52099 C 92.604173,140.22931 92.604173,140.22931 92.604173,140.22931 H 79.375006 v 0 l -7.9375,-5.29168 v 0 l -2.645833,-2.64584 v 0"
         id="path116" />
      <path
         style="fill:none;fill-opacity:1;stroke:#ffffff;stroke-width:1.00082;stroke-linecap:butt;stroke-linejoin:miter;stroke-miterlimit:4;stroke-dasharray:none;stroke-opacity:1"
         d="m 89.958332,132.29179 c -10.583333,-7.93752 -10.583333,-7.93752 -10.583333,-7.93752 h -5.291667 v 0 l -5.291666,-7.93752 v 0 l -10.583333,-2.64584 v 0"
         id="path118" />
      <path
         style="fill:none;fill-opacity:1;stroke:#ffffff;stroke-width:1.00082;stroke-linecap:butt;stroke-linejoin:miter;stroke-miterlimit:4;stroke-dasharray:none;stroke-opacity:1"
         d="m 95.25,119.06259 -5.291667,-5.29167 v -5.29169 L 79.375,100.5417 h -7.9375 v 0"
         id="path120" />
      <path
         style="fill:none;fill-opacity:1;stroke:#ffffff;stroke-width:1.00082;stroke-linecap:butt;stroke-linejoin:miter;stroke-miterlimit:4;stroke-dasharray:none;stroke-opacity:1"
         d="m 82.020832,116.41676 -7.9375,-5.29169 v 0"
         id="path122" />
      <path
         style="fill:none;fill-opacity:1;stroke:#ffffff;stroke-width:1.00082;stroke-linecap:butt;stroke-linejoin:miter;stroke-miterlimit:4;stroke-dasharray:none;stroke-opacity:1"
         d="m 100.54167,150.81268 -7.937504,-5.29169 -13.229167,2.64584 v 0"
         id="path124" />
      <ellipse
         style="fill:none;fill-opacity:1;stroke:#ffffff;stroke-width:1.00082;stroke-miterlimit:4;stroke-dasharray:none;stroke-opacity:1"
         id="path126"
         cx="78.052086"
         cy="148.54482"
         rx="1.3229166"
         ry="1.3229203" />
      <ellipse
         style="fill:none;fill-opacity:1;stroke:#ffffff;stroke-width:1.00082;stroke-miterlimit:4;stroke-dasharray:none;stroke-opacity:1"
         id="path126-3"
         cx="68.224701"
         cy="131.72484"
         rx="1.3229166"
         ry="1.3229203" />
      <ellipse
         style="fill:none;fill-opacity:1;stroke:#ffffff;stroke-width:1.00082;stroke-miterlimit:4;stroke-dasharray:none;stroke-opacity:1"
         id="path126-38"
         cx="57.943752"
         cy="113.8465"
         rx="1.3229166"
         ry="1.3229203" />
      <ellipse
         style="fill:none;fill-opacity:1;stroke:#ffffff;stroke-width:1.00082;stroke-miterlimit:4;stroke-dasharray:none;stroke-opacity:1"
         id="path126-9"
         cx="73.894348"
         cy="110.93608"
         rx="1.3229166"
         ry="1.3229203" />
      <ellipse
         style="fill:none;fill-opacity:1;stroke:#ffffff;stroke-width:1.00082;stroke-miterlimit:4;stroke-dasharray:none;stroke-opacity:1"
         id="path126-93"
         cx="82.209824"
         cy="116.41673"
         rx="1.3229166"
         ry="1.3229203" />
      <ellipse
         style="fill:none;fill-opacity:1;stroke:#ffffff;stroke-width:1.00082;stroke-miterlimit:4;stroke-dasharray:none;stroke-opacity:1"
         id="path126-1"
         cx="89.958336"
         cy="132.59418"
         rx="1.3229166"
         ry="1.3229203" />
      <ellipse
         style="fill:none;fill-opacity:1;stroke:#ffffff;stroke-width:1.00082;stroke-miterlimit:4;stroke-dasharray:none;stroke-opacity:1"
         id="path126-8"
         cx="100.35268"
         cy="150.62369"
         rx="1.3229166"
         ry="1.3229203" />
      <ellipse
         style="fill:none;fill-opacity:1;stroke:#ffffff;stroke-width:1.00082;stroke-miterlimit:4;stroke-dasharray:none;stroke-opacity:1"
         id="path126-16"
         cx="95.627975"
         cy="119.25158"
         rx="1.3229166"
         ry="1.3229203" />
      <ellipse
         style="fill:none;fill-opacity:1;stroke:#ffffff;stroke-width:1.00082;stroke-miterlimit:4;stroke-dasharray:none;stroke-opacity:1"
         id="path126-5"
         cx="71.626488"
         cy="100.54171"
         rx="1.3229166"
         ry="1.3229203" />
      <ellipse
         style="fill:none;fill-opacity:1;stroke:#ffffff;stroke-width:1.00082;stroke-miterlimit:4;stroke-dasharray:none;stroke-opacity:1"
         id="path126-0"
         cx="97.895844"
         cy="100.54171"
         rx="1.3229166"
         ry="1.3229203" />
      <ellipse
         style="fill:none;fill-opacity:1;stroke:#ffffff;stroke-width:1.00082;stroke-miterlimit:4;stroke-dasharray:none;stroke-opacity:1"
         id="path126-34"
         cx="87.312492"
         cy="89.958351"
         rx="1.3229166"
         ry="1.3229203" />
      <ellipse
         style="fill:none;fill-opacity:1;stroke:#ffffff;stroke-width:1.00082;stroke-miterlimit:4;stroke-dasharray:none;stroke-opacity:1"
         id="path126-31"
         cx="103.1875"
         cy="105.07743"
         rx="1.3229166"
         ry="1.3229203" />
      <ellipse
         style="fill:none;fill-opacity:1;stroke:#ffffff;stroke-width:1.00082;stroke-miterlimit:4;stroke-dasharray:none;stroke-opacity:1"
         id="path126-04"
         cx="103.37649"
         cy="113.77092"
         rx="1.3229166"
         ry="1.3229203" />
      <ellipse
         style="fill:none;fill-opacity:1;stroke:#ffffff;stroke-width:1.00082;stroke-miterlimit:4;stroke-dasharray:none;stroke-opacity:1"
         id="path126-19"
         cx="103.18751"
         cy="121.51945"
         rx="1.3229166"
         ry="1.3229203" />
      <ellipse
         style="fill:none;fill-opacity:1;stroke:#ffffff;stroke-width:1.00082;stroke-miterlimit:4;stroke-dasharray:none;stroke-opacity:1"
         id="path126-15"
         cx="121.25357"
         cy="153.62389"
         rx="1.3229166"
         ry="1.3229203" />
      <ellipse
         style="fill:none;fill-opacity:1;stroke:#ffffff;stroke-width:1.00082;stroke-miterlimit:4;stroke-dasharray:none;stroke-opacity:1"
         id="path126-30"
         cx="142.42261"
         cy="142.77715"
         rx="1.3229166"
         ry="1.3229203" />
      <ellipse
         style="fill:none;fill-opacity:1;stroke:#ffffff;stroke-width:1.00082;stroke-miterlimit:4;stroke-dasharray:none;stroke-opacity:1"
         id="path126-2"
         cx="144.13887"
         cy="133.53204"
         rx="1.3229166"
         ry="1.3229203" />
      <ellipse
         style="fill:none;fill-opacity:1;stroke:#ffffff;stroke-width:1.00082;stroke-miterlimit:4;stroke-dasharray:none;stroke-opacity:1"
         id="path126-85"
         cx="116.41667"
         cy="137.3945"
         rx="1.3229166"
         ry="1.3229203" />
      <ellipse
         style="fill:none;fill-opacity:1;stroke:#ffffff;stroke-width:1.00082;stroke-miterlimit:4;stroke-dasharray:none;stroke-opacity:1"
         id="path126-92"
         cx="118.8735"
         cy="108.29023"
         rx="1.3229166"
         ry="1.3229203" />
      <ellipse
         style="fill:none;fill-opacity:1;stroke:#ffffff;stroke-width:1.00082;stroke-miterlimit:4;stroke-dasharray:none;stroke-opacity:1"
         id="path126-06"
         cx="105.83334"
         cy="89.958344"
         rx="1.3229166"
         ry="1.3229203" />
      <ellipse
         style="fill:none;fill-opacity:1;stroke:#ffffff;stroke-width:1.00082;stroke-miterlimit:4;stroke-dasharray:none;stroke-opacity:1"
         id="path126-09"
         cx="127.18899"
         cy="105.98459"
         rx="1.3229166"
         ry="1.3229203" />
      <ellipse
         style="fill:none;fill-opacity:1;stroke:#ffffff;stroke-width:1.00082;stroke-miterlimit:4;stroke-dasharray:none;stroke-opacity:1"
         id="path126-29"
         cx="125.4881"
         cy="133.42574"
         rx="1.3229166"
         ry="1.3229203" />
      <ellipse
         style="fill:none;fill-opacity:1;stroke:#ffffff;stroke-width:1.00082;stroke-miterlimit:4;stroke-dasharray:none;stroke-opacity:1"
         id="path126-7"
         cx="143.06398"
         cy="101.86464"
         rx="1.3229166"
         ry="1.3229203" />
      <ellipse
         style="fill:none;fill-opacity:1;stroke:#ffffff;stroke-width:1.00082;stroke-miterlimit:4;stroke-dasharray:none;stroke-opacity:1"
         id="path126-18"
         cx="145.52083"
         cy="116.41674"
         rx="1.3229166"
         ry="1.3229203" />
      <ellipse
         style="fill:none;fill-opacity:1;stroke:#ffffff;stroke-width:1.00082;stroke-miterlimit:4;stroke-dasharray:none;stroke-opacity:1"
         id="path126-52"
         cx="164.04167"
         cy="105.64441"
         rx="1.3229166"
         ry="1.3229203" />
      <ellipse
         style="fill:none;fill-opacity:1;stroke:#ffffff;stroke-width:1.00082;stroke-miterlimit:4;stroke-dasharray:none;stroke-opacity:1"
         id="path126-77"
         cx="135.1265"
         cy="131.91382"
         rx="1.3229166"
         ry="1.3229203" />
      <ellipse
         style="fill:none;fill-opacity:1;stroke:#ffffff;stroke-width:1.00082;stroke-miterlimit:4;stroke-dasharray:none;stroke-opacity:1"
         id="path126-159"
         cx="161.39583"
         cy="116.22775"
         rx="1.3229166"
         ry="1.3229203" />
      <ellipse
         style="fill:none;fill-opacity:1;stroke:#ffffff;stroke-width:1.00082;stroke-miterlimit:4;stroke-dasharray:none;stroke-opacity:1"
         id="path126-83"
         cx="73.70536"
         cy="197.68185"
         rx="1.3229166"
         ry="1.3229203" />
      <ellipse
         style="fill:none;fill-opacity:1;stroke:#ffffff;stroke-width:1.00082;stroke-miterlimit:4;stroke-dasharray:none;stroke-opacity:1"
         id="path126-4"
         cx="81.831848"
         cy="200.89467"
         rx="1.3229166"
         ry="1.3229203" />
      <ellipse
         style="fill:none;fill-opacity:1;stroke:#ffffff;stroke-width:1.00082;stroke-miterlimit:4;stroke-dasharray:none;stroke-opacity:1"
         id="path126-314"
         cx="97.895836"
         cy="195.79198"
         rx="1.3229166"
         ry="1.3229203" />
      <ellipse
         style="fill:none;fill-opacity:1;stroke:#ffffff;stroke-width:1.00082;stroke-miterlimit:4;stroke-dasharray:none;stroke-opacity:1"
         id="path126-27"
         cx="79.375"
         cy="206.18636"
         rx="1.3229166"
         ry="1.3229203" />
      <ellipse
         style="fill:none;fill-opacity:1;stroke:#ffffff;stroke-width:1.00082;stroke-miterlimit:4;stroke-dasharray:none;stroke-opacity:1"
         id="path126-837"
         cx="106.02232"
         cy="195.414"
         rx="1.3229166"
         ry="1.3229203" />
      <ellipse
         style="fill:none;fill-opacity:1;stroke:#ffffff;stroke-width:1.00082;stroke-miterlimit:4;stroke-dasharray:none;stroke-opacity:1"
         id="path126-926"
         cx="95.25"
         cy="211.47803"
         rx="1.3229166"
         ry="1.3229203" />
      <ellipse
         style="fill:none;fill-opacity:1;stroke:#ffffff;stroke-width:1.00082;stroke-miterlimit:4;stroke-dasharray:none;stroke-opacity:1"
         id="path126-01"
         cx="111.31399"
         cy="198.43781"
         rx="1.3229166"
         ry="1.3229203" />
      <ellipse
         style="fill:none;fill-opacity:1;stroke:#ffffff;stroke-width:1.00082;stroke-miterlimit:4;stroke-dasharray:none;stroke-opacity:1"
         id="path126-9264"
         cx="127.18898"
         cy="214.12389"
         rx="1.3229166"
         ry="1.3229203" />
      <ellipse
         style="fill:none;fill-opacity:1;stroke:#ffffff;stroke-width:1.00082;stroke-miterlimit:4;stroke-dasharray:none;stroke-opacity:1"
         id="path126-932"
         cx="116.41666"
         cy="195.60298"
         rx="1.3229166"
         ry="1.3229203" />
      <ellipse
         style="fill:none;fill-opacity:1;stroke:#ffffff;stroke-width:1.00082;stroke-miterlimit:4;stroke-dasharray:none;stroke-opacity:1"
         id="path126-53"
         cx="121.89732"
         cy="195.79198"
         rx="1.3229166"
         ry="1.3229203" />
      <ellipse
         style="fill:none;fill-opacity:1;stroke:#ffffff;stroke-width:1.00082;stroke-miterlimit:4;stroke-dasharray:none;stroke-opacity:1"
         id="path126-21"
         cx="140.22916"
         cy="208.8322"
         rx="1.3229166"
         ry="1.3229203" />
      <ellipse
         style="fill:none;fill-opacity:1;stroke:#ffffff;stroke-width:1.00082;stroke-miterlimit:4;stroke-dasharray:none;stroke-opacity:1"
         id="path126-50"
         cx="127.00001"
         cy="193.33513"
         rx="1.3229166"
         ry="1.3229203" />
      <ellipse
         style="fill:none;fill-opacity:1;stroke:#ffffff;stroke-width:1.00082;stroke-miterlimit:4;stroke-dasharray:none;stroke-opacity:1"
         id="path126-25"
         cx="132.10268"
         cy="198.43781"
         rx="1.3229166"
         ry="1.3229203" />
      <ellipse
         style="fill:none;fill-opacity:1;stroke:#ffffff;stroke-width:1.00082;stroke-miterlimit:4;stroke-dasharray:none;stroke-opacity:1"
         id="path126-150"
         cx="140.60715"
         cy="198.24884"
         rx="1.3229166"
         ry="1.3229203" />
      <path
         style="fill:none;fill-opacity:1;stroke:#ffffff;stroke-width:1.00082;stroke-linecap:butt;stroke-linejoin:miter;stroke-miterlimit:4;stroke-dasharray:none;stroke-opacity:1"
         d="m 63.5,150.81269 c 0,23.81255 0,23.81255 0,23.81255"
         id="path395" />
      <path
         style="fill:none;fill-opacity:1;stroke:#ffffff;stroke-width:1.00082;stroke-linecap:butt;stroke-linejoin:miter;stroke-miterlimit:4;stroke-dasharray:none;stroke-opacity:1"
         d="m 71.437499,149.48976 -7.9375,1.32292 v 0"
         id="path397" />
      <path
         style="fill:none;fill-opacity:1;stroke:#ffffff;stroke-width:1.00082;stroke-linecap:butt;stroke-linejoin:miter;stroke-miterlimit:4;stroke-dasharray:none;stroke-opacity:1"
         d="m 56.885416,150.81268 c 0,23.81256 0,23.81256 0,23.81256"
         id="path399" />
      <path
         style="fill:none;fill-opacity:1;stroke:#ffffff;stroke-width:1.00082;stroke-linecap:butt;stroke-linejoin:miter;stroke-miterlimit:4;stroke-dasharray:none;stroke-opacity:1"
         d="m 63.499999,174.62524 c 7.937501,0 7.937501,0 7.937501,0 0,0 0,0 0,0 9.260417,6.6146 9.260417,6.6146 9.260417,6.6146"
         id="path401" />
      <path
         style="fill:none;fill-opacity:1;stroke:#ffffff;stroke-width:1.00082;stroke-linecap:butt;stroke-linejoin:miter;stroke-miterlimit:4;stroke-dasharray:none;stroke-opacity:1"
         d="m 56.885416,174.62524 c -7.9375,1.05834 -7.9375,1.05834 -7.9375,1.05834 10e-7,4.23335 10e-7,4.23335 10e-7,4.23335 v 0"
         id="path403" />
      <path
         style="fill:none;fill-opacity:1;stroke:#ffffff;stroke-width:1.00082;stroke-linecap:butt;stroke-linejoin:miter;stroke-miterlimit:4;stroke-dasharray:none;stroke-opacity:1"
         d="m 48.947916,179.91692 c -6.614583,2.64584 -6.614583,2.64584 -6.614583,2.64584"
         id="path405" />
      <path
         style="fill:none;fill-opacity:1;stroke:#ffffff;stroke-width:1.00082;stroke-linecap:butt;stroke-linejoin:miter;stroke-miterlimit:4;stroke-dasharray:none;stroke-opacity:1"
         d="M 54.239583,179.91692 Z"
         id="path407" />
      <path
         style="fill:none;fill-opacity:1;stroke:#ffffff;stroke-width:1.00082;stroke-linecap:butt;stroke-linejoin:miter;stroke-miterlimit:4;stroke-dasharray:none;stroke-opacity:1"
         d="m 63.499999,148.16683 c 0,-3.96876 0,-3.96876 0,-3.96876"
         id="path409" />
      <path
         style="fill:none;fill-opacity:1;stroke:#ffffff;stroke-width:1.00082;stroke-linecap:butt;stroke-linejoin:miter;stroke-miterlimit:4;stroke-dasharray:none;stroke-opacity:1"
         d="m 63.499999,144.19807 c 6.614583,-3.96876 6.614583,-3.96876 6.614583,-3.96876"
         id="path411" />
      <path
         style="fill:none;fill-opacity:1;stroke:#ffffff;stroke-width:1.00082;stroke-linecap:butt;stroke-linejoin:miter;stroke-miterlimit:4;stroke-dasharray:none;stroke-opacity:1"
         d="m 56.885416,150.81268 c -6.614584,-2.64586 -6.614584,-2.64586 -6.614584,-2.64586 1e-6,2e-5 1e-6,2e-5 1e-6,2e-5"
         id="path413" />
      <path
         style="fill:none;fill-opacity:1;stroke:#ffffff;stroke-width:1.00082;stroke-linecap:butt;stroke-linejoin:miter;stroke-miterlimit:4;stroke-dasharray:none;stroke-opacity:1"
         d="m 50.270833,148.16683 c -13.229167,1.32293 -13.229167,1.32293 -13.229167,1.32293"
         id="path415" />
      <path
         style="fill:none;fill-opacity:1;stroke:#ffffff;stroke-width:1.00082;stroke-linecap:butt;stroke-linejoin:miter;stroke-miterlimit:4;stroke-dasharray:none;stroke-opacity:1"
         d="m 56.885416,148.16683 c 0,-7.93752 0,-7.93752 0,-7.93752"
         id="path417" />
      <path
         style="fill:none;fill-opacity:1;stroke:#ffffff;stroke-width:1.00082;stroke-linecap:butt;stroke-linejoin:miter;stroke-miterlimit:4;stroke-dasharray:none;stroke-opacity:1"
         d="m 35.71875,128.32304 c 21.166666,11.90627 21.166666,11.90627 21.166666,11.90627"
         id="path419" />
      <path
         style="fill:none;fill-opacity:1;stroke:#ffffff;stroke-width:1.00082;stroke-linecap:butt;stroke-linejoin:miter;stroke-miterlimit:4;stroke-dasharray:none;stroke-opacity:1"
         d="m 50.270833,144.19807 c -9.260417,0 -9.260417,0 -9.260417,0 C 31.75,140.22932 31.75,140.22932 31.75,140.22932"
         id="path421" />
      <path
         style="fill:none;fill-opacity:1;stroke:#ffffff;stroke-width:1.00082;stroke-linecap:butt;stroke-linejoin:miter;stroke-miterlimit:4;stroke-dasharray:none;stroke-opacity:1"
         d="M 41.010416,137.58347 C 30.427083,132.29179 30.427083,132.29179 30.427083,132.29179"
         id="path423" />
      <path
         style="fill:none;fill-opacity:1;stroke:#ffffff;stroke-width:1.00082;stroke-linecap:butt;stroke-linejoin:miter;stroke-miterlimit:4;stroke-dasharray:none;stroke-opacity:1"
         d="m 58.208334,134.93763 c -13.229167,-7.93752 -13.229167,-7.93752 -13.229167,-7.93752 -3.96875,-9.26044 -3.96875,-9.26044 -3.96875,-9.26044"
         id="path425" />
      <path
         style="fill:none;fill-opacity:1;stroke:#ffffff;stroke-width:1.00082;stroke-linecap:butt;stroke-linejoin:miter;stroke-miterlimit:4;stroke-dasharray:none;stroke-opacity:1"
         d="m 60.854167,127.00011 c -7.9375,-5.29168 -7.9375,-5.29168 -7.9375,-5.29168"
         id="path427" />
      <ellipse
         style="fill:none;fill-opacity:1;stroke:#ffffff;stroke-width:1.00082;stroke-miterlimit:4;stroke-dasharray:none;stroke-opacity:1"
         id="path126-78"
         cx="41.076561"
         cy="117.67354"
         inkscape:transform-center-x="4.365625"
         inkscape:transform-center-y="4.6302272"
         rx="0.99218744"
         ry="0.99219024" />
      <ellipse
         style="fill:none;fill-opacity:1;stroke:#ffffff;stroke-width:1.00082;stroke-miterlimit:4;stroke-dasharray:none;stroke-opacity:1"
         id="path126-78-0"
         cx="51.92448"
         cy="121.11313"
         inkscape:transform-center-x="1.4552083"
         inkscape:transform-center-y="-4.3656334"
         rx="0.99218744"
         ry="0.99219024" />
      <ellipse
         style="fill:none;fill-opacity:1;stroke:#ffffff;stroke-width:1.00082;stroke-miterlimit:4;stroke-dasharray:none;stroke-opacity:1"
         id="path126-78-08"
         cx="60.920311"
         cy="126.80167"
         inkscape:transform-center-x="-0.13229167"
         inkscape:transform-center-y="-0.13230426"
         rx="0.99218744"
         ry="0.99219024" />
      <ellipse
         style="fill:none;fill-opacity:1;stroke:#ffffff;stroke-width:1.00082;stroke-miterlimit:4;stroke-dasharray:none;stroke-opacity:1"
         id="path126-78-6"
         cx="58.142189"
         cy="135.0038"
         rx="0.99218744"
         ry="0.99219024" />
      <ellipse
         style="fill:none;fill-opacity:1;stroke:#ffffff;stroke-width:1.00082;stroke-miterlimit:4;stroke-dasharray:none;stroke-opacity:1"
         id="path126-78-2"
         cx="35.784897"
         cy="128.12462"
         inkscape:transform-center-x="-5.2916667"
         inkscape:transform-center-y="-5.4239666"
         rx="0.99218744"
         ry="0.99219024" />
      <ellipse
         style="fill:none;fill-opacity:1;stroke:#ffffff;stroke-width:1.00082;stroke-miterlimit:4;stroke-dasharray:none;stroke-opacity:1"
         id="path126-78-60"
         cx="56.819271"
         cy="147.83611"
         inkscape:transform-center-x="-11.641667"
         inkscape:transform-center-y="5.2916788"
         rx="0.99218744"
         ry="0.99219024" />
      <ellipse
         style="fill:none;fill-opacity:1;stroke:#ffffff;stroke-width:1.00082;stroke-miterlimit:4;stroke-dasharray:none;stroke-opacity:1"
         id="path126-78-7"
         cx="70.048439"
         cy="140.16319"
         inkscape:transform-center-x="-0.13229167"
         inkscape:transform-center-y="9.7896144"
         rx="0.99218744"
         ry="0.99219024" />
      <ellipse
         style="fill:none;fill-opacity:1;stroke:#ffffff;stroke-width:1.00082;stroke-miterlimit:4;stroke-dasharray:none;stroke-opacity:1"
         id="path126-78-086"
         cx="30.360937"
         cy="132.22566"
         inkscape:transform-center-x="-0.13229167"
         inkscape:transform-center-y="10.847958"
         rx="0.99218744"
         ry="0.99219024" />
      <ellipse
         style="fill:none;fill-opacity:1;stroke:#ffffff;stroke-width:1.00082;stroke-miterlimit:4;stroke-dasharray:none;stroke-opacity:1"
         id="path126-78-3"
         cx="40.944271"
         cy="137.64964"
         inkscape:transform-center-x="-12.038542"
         inkscape:transform-center-y="-18.520875"
         rx="0.99218744"
         ry="0.99219024" />
      <ellipse
         style="fill:none;fill-opacity:1;stroke:#ffffff;stroke-width:1.00082;stroke-miterlimit:4;stroke-dasharray:none;stroke-opacity:1"
         id="path126-78-68"
         cx="50.204689"
         cy="144.13194"
         inkscape:transform-center-x="9.525"
         inkscape:transform-center-y="15.875037"
         rx="0.99218744"
         ry="0.99219024" />
      <ellipse
         style="fill:none;fill-opacity:1;stroke:#ffffff;stroke-width:1.00082;stroke-miterlimit:4;stroke-dasharray:none;stroke-opacity:1"
         id="path126-78-9"
         cx="31.683853"
         cy="140.29547"
         inkscape:transform-center-x="-3.7041667"
         inkscape:transform-center-y="14.022959"
         rx="0.99218744"
         ry="0.99219024" />
      <ellipse
         style="fill:none;fill-opacity:1;stroke:#ffffff;stroke-width:1.00082;stroke-miterlimit:4;stroke-dasharray:none;stroke-opacity:1"
         id="path126-78-74"
         cx="36.975521"
         cy="149.42363"
         inkscape:transform-center-x="-18.653125"
         inkscape:transform-center-y="-4.4979214"
         rx="0.99218744"
         ry="0.99219024" />
      <ellipse
         style="fill:none;fill-opacity:1;stroke:#ffffff;stroke-width:1.00082;stroke-miterlimit:4;stroke-dasharray:none;stroke-opacity:1"
         id="path126-78-90"
         cx="71.371353"
         cy="149.42363"
         inkscape:transform-center-x="-9.128125"
         inkscape:transform-center-y="24.73862"
         rx="0.99218744"
         ry="0.99219024" />
      <ellipse
         style="fill:none;fill-opacity:1;stroke:#ffffff;stroke-width:1.00082;stroke-miterlimit:4;stroke-dasharray:none;stroke-opacity:1"
         id="path126-78-5"
         cx="80.631767"
         cy="181.17371"
         inkscape:transform-center-x="-0.79375"
         inkscape:transform-center-y="-9.525032"
         rx="0.99218744"
         ry="0.99219024" />
      <ellipse
         style="fill:none;fill-opacity:1;stroke:#ffffff;stroke-width:1.00082;stroke-miterlimit:4;stroke-dasharray:none;stroke-opacity:1"
         id="path126-78-35"
         cx="42.267185"
         cy="182.49663"
         inkscape:transform-center-x="-39.290625"
         inkscape:transform-center-y="-6.879195"
         rx="0.99218744"
         ry="0.99219024" />
      <path
         style="fill:none;fill-opacity:1;stroke:#ffffff;stroke-width:1.00082;stroke-linecap:butt;stroke-linejoin:miter;stroke-miterlimit:4;stroke-dasharray:none;stroke-opacity:1"
         d="m 57.679166,179.91693 c -7.408333,2.64583 -7.408333,2.64583 -7.408333,2.64583 -1.852083,5.2917 -1.852083,5.2917 -1.852083,5.2917"
         id="path528" />
      <path
         style="fill:none;fill-opacity:1;stroke:#ffffff;stroke-width:1.00082;stroke-linecap:butt;stroke-linejoin:miter;stroke-miterlimit:4;stroke-dasharray:none;stroke-opacity:1"
         d="m 66.145832,178.594 c 6.614584,3.96876 6.614584,3.96876 6.614584,3.96876"
         id="path530" />
      <path
         style="fill:none;fill-opacity:1;stroke:#ffffff;stroke-width:1.00082;stroke-linecap:butt;stroke-linejoin:miter;stroke-miterlimit:4;stroke-dasharray:none;stroke-opacity:1"
         d="m 63.499999,182.56276 c -2.645833,3.96876 -3.96875,5.29169 -3.96875,5.29169 v 0"
         id="path532" />
      <ellipse
         style="fill:none;fill-opacity:1;stroke:#ffffff;stroke-width:1.00082;stroke-miterlimit:4;stroke-dasharray:none;stroke-opacity:1"
         id="path126-78-73"
         cx="48.484898"
         cy="187.52373"
         rx="0.99218744"
         ry="0.99219024" />
      <ellipse
         style="fill:none;fill-opacity:1;stroke:#ffffff;stroke-width:1.00082;stroke-miterlimit:4;stroke-dasharray:none;stroke-opacity:1"
         id="path126-78-78"
         cx="57.348434"
         cy="179.8508"
         rx="0.99218744"
         ry="0.99219024" />
      <ellipse
         style="fill:none;fill-opacity:1;stroke:#ffffff;stroke-width:1.00082;stroke-miterlimit:4;stroke-dasharray:none;stroke-opacity:1"
         id="path126-78-99"
         cx="66.079689"
         cy="178.52786"
         rx="0.99218744"
         ry="0.99219024" />
      <ellipse
         style="fill:none;fill-opacity:1;stroke:#ffffff;stroke-width:1.00082;stroke-miterlimit:4;stroke-dasharray:none;stroke-opacity:1"
         id="path126-78-52"
         cx="72.694267"
         cy="182.49663"
         rx="0.99218744"
         ry="0.99219024" />
      <ellipse
         style="fill:none;fill-opacity:1;stroke:#ffffff;stroke-width:1.00082;stroke-miterlimit:4;stroke-dasharray:none;stroke-opacity:1"
         id="path126-78-8"
         cx="59.597393"
         cy="187.78831"
         rx="0.99218744"
         ry="0.99219024" />
      <ellipse
         style="fill:none;fill-opacity:1;stroke:#ffffff;stroke-width:1.00082;stroke-miterlimit:4;stroke-dasharray:none;stroke-opacity:1"
         id="path126-78-59"
         cx="63.433853"
         cy="182.36435"
         rx="0.99218744"
         ry="0.99219024" />
      <path
         style="fill:none;fill-opacity:1;stroke:#ffffff;stroke-width:1.00082;stroke-linecap:butt;stroke-linejoin:miter;stroke-miterlimit:4;stroke-dasharray:none;stroke-opacity:1"
         d="m 158.75,150.81269 c 0,23.81255 0,23.81255 0,23.81255"
         id="path395-0" />
      <path
         style="fill:none;fill-opacity:1;stroke:#ffffff;stroke-width:1.00082;stroke-linecap:butt;stroke-linejoin:miter;stroke-miterlimit:4;stroke-dasharray:none;stroke-opacity:1"
         d="m 165.36458,150.81268 c 0,23.81255 0,23.81255 0,23.81255"
         id="path395-3" />
      <path
         style="fill:none;fill-opacity:1;stroke:#ffffff;stroke-width:1.00082;stroke-linecap:butt;stroke-linejoin:miter;stroke-miterlimit:4;stroke-dasharray:none;stroke-opacity:1"
         d="m 158.75,174.62524 -7.9375,1.11126 v 4.44502 -0.2646"
         id="path403-6"
         sodipodi:nodetypes="cccc" />
      <path
         style="fill:none;fill-opacity:1;stroke:#ffffff;stroke-width:1.00082;stroke-linecap:butt;stroke-linejoin:miter;stroke-miterlimit:4;stroke-dasharray:none;stroke-opacity:1"
         d="m 150.8125,179.91692 -9.26042,2.64584"
         id="path606"
         sodipodi:nodetypes="cc" />
      <path
         style="fill:none;fill-opacity:1;stroke:#ffffff;stroke-width:1.00082;stroke-linecap:butt;stroke-linejoin:miter;stroke-miterlimit:4;stroke-dasharray:none;stroke-opacity:1"
         d="m 165.36458,174.62524 c 9.26042,0 9.26042,0 9.26042,0 5.29167,3.96876 5.29167,3.96876 5.29167,3.96876"
         id="path608" />
      <path
         style="fill:none;fill-opacity:1;stroke:#ffffff;stroke-width:1.00082;stroke-linecap:butt;stroke-linejoin:miter;stroke-miterlimit:4;stroke-dasharray:none;stroke-opacity:1"
         d="m 162.71875,179.91693 c 5.29167,6.61459 5.29167,6.61459 5.29167,6.61459 6.61458,1.32294 6.61458,1.32294 6.61458,1.32294"
         id="path610" />
      <path
         style="fill:none;fill-opacity:1;stroke:#ffffff;stroke-width:1.00082;stroke-linecap:butt;stroke-linejoin:miter;stroke-miterlimit:4;stroke-dasharray:none;stroke-opacity:1"
         d="m 168.01042,178.594 c 5.29167,3.96876 5.29167,3.96876 5.29167,3.96876"
         id="path614" />
      <path
         style="fill:none;fill-opacity:1;stroke:#ffffff;stroke-width:1.00082;stroke-linecap:butt;stroke-linejoin:miter;stroke-miterlimit:4;stroke-dasharray:none;stroke-opacity:1"
         d="m 157.42708,179.91693 c -5.29167,5.29168 -5.29167,5.29168 -5.29167,5.29168"
         id="path616" />
      <path
         style="fill:none;fill-opacity:1;stroke:#ffffff;stroke-width:1.00082;stroke-linecap:butt;stroke-linejoin:miter;stroke-miterlimit:4;stroke-dasharray:none;stroke-opacity:1"
         d="M 158.75,150.81268 C 146.84375,138.90639 146.84375,138.90639 146.84375,138.90639"
         id="path618" />
      <path
         style="fill:none;fill-opacity:1;stroke:#ffffff;stroke-width:1.00082;stroke-linecap:butt;stroke-linejoin:miter;stroke-miterlimit:4;stroke-dasharray:none;stroke-opacity:1"
         d="m 165.36458,150.81268 c 5.29167,-3.96877 5.29167,-3.96877 5.29167,-3.96877 7.9375,0 7.9375,0 7.9375,0 6.61458,-6.61459 6.61458,-6.61459 6.61458,-6.61459"
         id="path620" />
      <path
         style="fill:none;fill-opacity:1;stroke:#ffffff;stroke-width:1.00082;stroke-linecap:butt;stroke-linejoin:miter;stroke-miterlimit:4;stroke-dasharray:none;stroke-opacity:1"
         d="m 158.75,144.19807 c 0,-9.26044 0,-9.26044 0,-9.26044 -10.58333,-5.29168 -10.58333,-5.29168 -10.58333,-5.29168"
         id="path622" />
      <path
         style="fill:none;fill-opacity:1;stroke:#ffffff;stroke-width:1.00082;stroke-linecap:butt;stroke-linejoin:miter;stroke-miterlimit:4;stroke-dasharray:none;stroke-opacity:1"
         d="m 164.04166,145.52099 c 0,-11.50365 0,-11.50365 0,-11.50365 13.22917,-14.95475 13.22917,-14.95475 13.22917,-14.95475"
         id="path624" />
      <path
         style="fill:none;fill-opacity:1;stroke:#ffffff;stroke-width:1.00082;stroke-linecap:butt;stroke-linejoin:miter;stroke-miterlimit:4;stroke-dasharray:none;stroke-opacity:1"
         d="m 158.75,128.32304 c 5.29166,-6.61461 5.29166,-6.61461 5.29166,-6.61461"
         id="path626" />
      <path
         style="fill:none;fill-opacity:1;stroke:#ffffff;stroke-width:1.00082;stroke-linecap:butt;stroke-linejoin:miter;stroke-miterlimit:4;stroke-dasharray:none;stroke-opacity:1"
         d="m 174.625,142.87515 c 5.29167,-5.29168 5.29167,-5.29168 5.29167,-5.29168 6.61459,-2.64584 6.61459,-2.64584 6.61459,-2.64584"
         id="path628" />
      <path
         style="fill:none;fill-opacity:1;stroke:#ffffff;stroke-width:1.00082;stroke-linecap:butt;stroke-linejoin:miter;stroke-miterlimit:4;stroke-dasharray:none;stroke-opacity:1"
         d="m 169.33333,140.22932 c 7.9375,-7.93752 7.9375,-7.93752 7.9375,-7.93752 v 0 c 2.64584,-9.26045 2.64584,-9.26045 2.64584,-9.26045"
         id="path630" />
      <ellipse
         style="fill:none;fill-opacity:1;stroke:#ffffff;stroke-width:1.00082;stroke-miterlimit:4;stroke-dasharray:none;stroke-opacity:1"
         id="path126-09-6"
         cx="127.18899"
         cy="111.27627"
         rx="1.3229166"
         ry="1.3229203" />
      <ellipse
         style="fill:none;fill-opacity:1;stroke:#ffffff;stroke-width:1.00082;stroke-miterlimit:4;stroke-dasharray:none;stroke-opacity:1"
         id="path126-78-5-4"
         cx="148.10052"
         cy="129.57982"
         inkscape:transform-center-x="-0.79375"
         inkscape:transform-center-y="-9.525024"
         rx="0.99218744"
         ry="0.99219024" />
      <ellipse
         style="fill:none;fill-opacity:1;stroke:#ffffff;stroke-width:1.00082;stroke-miterlimit:4;stroke-dasharray:none;stroke-opacity:1"
         id="path126-78-5-8"
         cx="164.2401"
         cy="121.51"
         inkscape:transform-center-x="-0.79375"
         inkscape:transform-center-y="-9.5250242"
         rx="0.99218744"
         ry="0.99219024" />
      <ellipse
         style="fill:none;fill-opacity:1;stroke:#ffffff;stroke-width:1.00082;stroke-miterlimit:4;stroke-dasharray:none;stroke-opacity:1"
         id="path126-78-5-85"
         cx="158.81615"
         cy="128.2569"
         inkscape:transform-center-x="-0.79375"
         inkscape:transform-center-y="-9.5250355"
         rx="0.99218744"
         ry="0.99219024" />
      <ellipse
         style="fill:none;fill-opacity:1;stroke:#ffffff;stroke-width:1.00082;stroke-miterlimit:4;stroke-dasharray:none;stroke-opacity:1"
         id="path126-78-5-7"
         cx="163.97552"
         cy="145.45485"
         inkscape:transform-center-x="-0.79375"
         inkscape:transform-center-y="-9.5250381"
         rx="0.99218744"
         ry="0.99219024" />
      <ellipse
         style="fill:none;fill-opacity:1;stroke:#ffffff;stroke-width:1.00082;stroke-miterlimit:4;stroke-dasharray:none;stroke-opacity:1"
         id="path126-78-5-9"
         cx="169.2672"
         cy="140.29547"
         inkscape:transform-center-x="-0.79375"
         inkscape:transform-center-y="-9.5250237"
         rx="0.99218744"
         ry="0.99219024" />
      <ellipse
         style="fill:none;fill-opacity:1;stroke:#ffffff;stroke-width:1.00082;stroke-miterlimit:4;stroke-dasharray:none;stroke-opacity:1"
         id="path126-78-5-98"
         cx="174.69115"
         cy="142.80902"
         inkscape:transform-center-x="-0.79375"
         inkscape:transform-center-y="-9.5250308"
         rx="0.99218744"
         ry="0.99219024" />
      <ellipse
         style="fill:none;fill-opacity:1;stroke:#ffffff;stroke-width:1.00082;stroke-miterlimit:4;stroke-dasharray:none;stroke-opacity:1"
         id="path126-78-5-5"
         cx="177.33698"
         cy="118.99646"
         inkscape:transform-center-x="-0.79375"
         inkscape:transform-center-y="-9.5250246"
         rx="0.99218744"
         ry="0.99219024" />
      <ellipse
         style="fill:none;fill-opacity:1;stroke:#ffffff;stroke-width:1.00082;stroke-miterlimit:4;stroke-dasharray:none;stroke-opacity:1"
         id="path126-78-5-3"
         cx="179.98282"
         cy="122.96521"
         inkscape:transform-center-x="-0.79375"
         inkscape:transform-center-y="-9.5250282"
         rx="0.99218744"
         ry="0.99219024" />
      <ellipse
         style="fill:none;fill-opacity:1;stroke:#ffffff;stroke-width:1.00082;stroke-miterlimit:4;stroke-dasharray:none;stroke-opacity:1"
         id="path126-78-5-53"
         cx="186.72969"
         cy="134.87151"
         inkscape:transform-center-x="-0.79375"
         inkscape:transform-center-y="-9.5250237"
         rx="0.99218744"
         ry="0.99219024" />
      <ellipse
         style="fill:none;fill-opacity:1;stroke:#ffffff;stroke-width:1.00082;stroke-miterlimit:4;stroke-dasharray:none;stroke-opacity:1"
         id="path126-78-5-0"
         cx="185.14218"
         cy="140.16319"
         inkscape:transform-center-x="-0.79375"
         inkscape:transform-center-y="-9.5250233"
         rx="0.99218744"
         ry="0.99219024" />
      <ellipse
         style="fill:none;fill-opacity:1;stroke:#ffffff;stroke-width:1.00082;stroke-miterlimit:4;stroke-dasharray:none;stroke-opacity:1"
         id="path126-78-5-37"
         cx="147.04218"
         cy="138.97256"
         inkscape:transform-center-x="-0.79375"
         inkscape:transform-center-y="-9.5250199"
         rx="0.99218744"
         ry="0.99219024" />
      <ellipse
         style="fill:none;fill-opacity:1;stroke:#ffffff;stroke-width:1.00082;stroke-miterlimit:4;stroke-dasharray:none;stroke-opacity:1"
         id="path126-78-5-04"
         cx="141.48595"
         cy="182.36435"
         inkscape:transform-center-x="-0.79375"
         inkscape:transform-center-y="-9.5250201"
         rx="0.99218744"
         ry="0.99219024" />
      <ellipse
         style="fill:none;fill-opacity:1;stroke:#ffffff;stroke-width:1.00082;stroke-miterlimit:4;stroke-dasharray:none;stroke-opacity:1"
         id="path126-78-5-379"
         cx="157.49323"
         cy="179.71851"
         inkscape:transform-center-x="-0.79375"
         inkscape:transform-center-y="-9.5250279"
         rx="0.99218744"
         ry="0.99219024" />
      <ellipse
         style="fill:none;fill-opacity:1;stroke:#ffffff;stroke-width:1.00082;stroke-miterlimit:4;stroke-dasharray:none;stroke-opacity:1"
         id="path126-78-5-78"
         cx="151.93698"
         cy="185.14247"
         inkscape:transform-center-x="-0.79375"
         inkscape:transform-center-y="-9.5250279"
         rx="0.99218744"
         ry="0.99219024" />
      <ellipse
         style="fill:none;fill-opacity:1;stroke:#ffffff;stroke-width:1.00082;stroke-miterlimit:4;stroke-dasharray:none;stroke-opacity:1"
         id="path126-78-5-93"
         cx="174.82344"
         cy="187.92059"
         inkscape:transform-center-x="-0.79375"
         inkscape:transform-center-y="-9.5250357"
         rx="0.99218744"
         ry="0.99219024" />
      <ellipse
         style="fill:none;fill-opacity:1;stroke:#ffffff;stroke-width:1.00082;stroke-miterlimit:4;stroke-dasharray:none;stroke-opacity:1"
         id="path126-78-5-06"
         cx="162.52031"
         cy="179.98308"
         inkscape:transform-center-x="-0.79375"
         inkscape:transform-center-y="-9.5250286"
         rx="0.99218744"
         ry="0.99219024" />
      <ellipse
         style="fill:none;fill-opacity:1;stroke:#ffffff;stroke-width:1.00082;stroke-miterlimit:4;stroke-dasharray:none;stroke-opacity:1"
         id="path126-78-5-2"
         cx="173.89738"
         cy="182.62894"
         inkscape:transform-center-x="-0.79375"
         inkscape:transform-center-y="-9.5250208"
         rx="0.99218744"
         ry="0.99219024" />
      <ellipse
         style="fill:none;fill-opacity:1;stroke:#ffffff;stroke-width:1.00082;stroke-miterlimit:4;stroke-dasharray:none;stroke-opacity:1"
         id="path126-78-5-6"
         cx="167.81198"
         cy="178.52788"
         inkscape:transform-center-x="-0.79375"
         inkscape:transform-center-y="-9.5250245"
         rx="0.99218744"
         ry="0.99219024" />
      <ellipse
         style="fill:none;fill-opacity:1;stroke:#ffffff;stroke-width:1.00082;stroke-miterlimit:4;stroke-dasharray:none;stroke-opacity:1"
         id="path126-78-5-84"
         cx="179.71823"
         cy="178.66017"
         inkscape:transform-center-x="-0.79375"
         inkscape:transform-center-y="-9.5250249"
         rx="0.99218744"
         ry="0.99219024" />
      <ellipse
         style="fill:none;fill-opacity:1;stroke:#ffffff;stroke-width:1.00082;stroke-miterlimit:4;stroke-dasharray:none;stroke-opacity:1"
         id="path126-78-5-23"
         cx="158.75"
         cy="144.19809"
         inkscape:transform-center-x="-0.79375"
         inkscape:transform-center-y="-9.5250193"
         rx="0.99218744"
         ry="0.99219024" />
      <ellipse
         style="fill:none;fill-opacity:1;stroke:#ffffff;stroke-width:1.00082;stroke-miterlimit:4;stroke-dasharray:none;stroke-opacity:1"
         id="path126-78-5-28"
         cx="63.5"
         cy="148.16684"
         inkscape:transform-center-x="-0.79375"
         inkscape:transform-center-y="-9.5250306"
         rx="0.99218744"
         ry="0.99219024" />
      <ellipse
         style="fill:none;fill-opacity:1;stroke:#ffffff;stroke-width:1.00082;stroke-miterlimit:4;stroke-dasharray:none;stroke-opacity:1"
         id="path126-06-7"
         cx="137.58334"
         cy="87.047928"
         rx="1.3229166"
         ry="1.3229203" />
    </g>
    <g
       style="fill:#ffffff;fill-opacity:1;stroke:none;stroke-width:0;stroke-miterlimit:4;stroke-dasharray:none;stroke-opacity:1"
       data-v-fde0c5aa=""
       id="96bae70a-5422-478d-96d3-4b92b578dd75"
       fill="#2e3034"
       transform="matrix(2.1257609,0,0,2.1257609,57.46253,-0.81672)">
      <path
         style="fill:#ffffff;fill-opacity:1;stroke:none;stroke-width:0;stroke-miterlimit:4;stroke-dasharray:none;stroke-opacity:1"
         d="m 0.71,14.01 v 0 q -0.09,0 -0.15,-0.05 v 0 0 Q 0.5,13.9 0.5,13.82 v 0 0 q 0,-0.09 0.06,-0.14 v 0 0 q 0.06,-0.06 0.15,-0.06 v 0 h 0.55 v 0 q 0.14,0 0.25,-0.11 v 0 0 Q 1.62,13.4 1.62,13.24 v 0 -8.05 0 q 0,-0.15 -0.1,-0.26 v 0 0 Q 1.41,4.82 1.26,4.82 v 0 H 0.71 v 0 q -0.08,0 -0.14,-0.07 v 0 0 Q 0.5,4.69 0.5,4.61 v 0 0 q 0,-0.09 0.06,-0.14 v 0 0 Q 0.62,4.41 0.71,4.41 v 0 h 3.71 v 0 q 0.7,0 1.54,0.18 v 0 0 q 0.83,0.17 1.5,0.69 v 0 0 Q 8.12,5.8 8.12,6.73 v 0 0 q 0,1.71 -2.48,2.23 v 0 0.08 0 q 1.3,0.09 2.1,0.68 v 0 0 q 0.8,0.58 0.8,1.69 v 0 0 q 0,1.23 -1.04,1.92 v 0 0 q -1.05,0.68 -3.02,0.68 v 0 z M 3.02,8.82 h 1.1 v 0 q 0.91,0 1.44,-0.2 v 0 0 Q 6.09,8.43 6.34,7.97 v 0 0 Q 6.59,7.52 6.59,6.71 v 0 0 q 0,-0.77 -0.22,-1.18 v 0 0 Q 6.15,5.12 5.68,4.97 v 0 0 Q 5.21,4.82 4.37,4.82 v 0 H 3.02 Z m 0,4.8 h 1.17 v 0 q 1.02,0 1.57,-0.11 v 0 0 q 0.55,-0.11 0.9,-0.59 v 0 0 Q 7,12.45 7,11.41 v 0 0 Q 7,10.74 6.79,10.27 v 0 0 Q 6.58,9.8 5.94,9.51 v 0 0 Q 5.31,9.21 4.1,9.21 v 0 H 3.02 Z m 8.82,0.52 v 0 q -0.78,0 -1.14,-0.52 v 0 0 q -0.35,-0.52 -0.35,-1.1 v 0 -3.64 0 q 0,-0.23 -0.2,-0.23 v 0 H 9.67 v 0 q -0.14,0 -0.14,-0.14 v 0 0 q 0,-0.14 0.17,-0.14 v 0 h 1.5 v 0 q 0.1,0 0.13,0.04 v 0 0 q 0.04,0.03 0.04,0.13 v 0 3.95 0 q 0,0.46 0.26,0.75 v 0 0 q 0.27,0.28 0.66,0.28 v 0 0 q 0.56,0 0.98,-0.44 v 0 0 q 0.42,-0.44 0.42,-1.56 v 0 -2.66 0 q 0,-0.12 -0.04,-0.17 v 0 0 Q 13.61,8.65 13.51,8.65 v 0 h -0.46 v 0 q -0.14,0 -0.14,-0.14 v 0 0 q 0,-0.15 0.14,-0.15 v 0 h 1.45 v 0 q 0.13,0 0.18,0.04 v 0 0 q 0.05,0.04 0.05,0.14 v 0 4.83 0 q 0,0.17 0.06,0.25 v 0 0 q 0.06,0.09 0.16,0.09 v 0 h 0.53 v 0 q 0.19,0 0.19,0.12 v 0 0 q 0,0.07 -0.07,0.13 v 0 0 q -0.06,0.05 -0.14,0.05 v 0 H 13.9 v 0 q -0.11,0 -0.16,-0.04 v 0 0 q -0.05,-0.05 -0.05,-0.18 v 0 -0.78 0 q 0,-0.06 -0.03,-0.06 v 0 0 q -0.04,0 -0.07,0.06 v 0 0 q -0.23,0.4 -0.63,0.77 v 0 0 q -0.39,0.36 -1.12,0.36 z m 5.06,-0.13 v 0 q -0.06,0 -0.08,-0.04 v 0 0 Q 16.8,13.93 16.8,13.85 v 0 0 q 0,-0.07 0.03,-0.09 v 0 0 q 0.03,-0.03 0.11,-0.03 v 0 h 0.49 v 0 q 0.13,0 0.2,-0.09 v 0 0 q 0.07,-0.1 0.07,-0.23 v 0 V 9 9 q 0,-0.15 -0.08,-0.23 v 0 0 Q 17.54,8.69 17.43,8.69 v 0 H 16.8 v 0 q -0.17,0 -0.17,-0.15 v 0 0 q 0,-0.18 0.18,-0.18 v 0 h 1.7 v 0 q 0.22,0 0.22,0.22 v 0 1.14 0 q 0,-0.09 0.17,-0.46 v 0 0 q 0.17,-0.37 0.53,-0.7 v 0 0 Q 19.8,8.23 20.38,8.23 v 0 0 q 0.52,0 0.76,0.25 v 0 0 q 0.24,0.26 0.24,0.61 v 0 0 q 0,0.29 -0.17,0.51 v 0 0 q -0.17,0.21 -0.43,0.21 v 0 0 q -0.26,0 -0.42,-0.16 v 0 0 Q 20.2,9.49 20.2,9.24 v 0 0 q 0,-0.25 0.14,-0.41 v 0 0 q 0.07,-0.07 0.07,-0.12 v 0 0 q 0,-0.07 -0.08,-0.12 v 0 0 Q 20.24,8.54 20.1,8.54 v 0 0 q -0.3,0 -0.62,0.27 v 0 0 q -0.31,0.28 -0.53,0.82 v 0 0 q -0.22,0.53 -0.22,1.28 v 0 2.6 0 q 0,0.13 0.03,0.16 v 0 0 q 0.03,0.04 0.13,0.04 v 0 h 0.71 v 0 q 0.07,0 0.13,0.03 v 0 0 q 0.05,0.04 0.05,0.11 v 0 0 q 0,0.16 -0.18,0.16 v 0 z m 5.43,0 v 0 q -0.06,0 -0.08,-0.04 v 0 0 q -0.02,-0.04 -0.02,-0.12 v 0 0 q 0,-0.07 0.03,-0.09 v 0 0 q 0.03,-0.03 0.11,-0.03 v 0 h 0.49 v 0 q 0.13,0 0.2,-0.09 v 0 0 q 0.07,-0.1 0.07,-0.23 v 0 V 9 9 q 0,-0.15 -0.08,-0.23 v 0 0 Q 22.97,8.69 22.86,8.69 v 0 h -0.63 v 0 q -0.17,0 -0.17,-0.15 v 0 0 q 0,-0.18 0.19,-0.18 v 0 h 1.69 v 0 q 0.22,0 0.22,0.22 v 0 1.14 0 q 0,-0.09 0.17,-0.46 v 0 0 q 0.17,-0.37 0.53,-0.7 v 0 0 q 0.37,-0.33 0.96,-0.33 v 0 0 q 0.51,0 0.75,0.25 v 0 0 q 0.24,0.26 0.24,0.61 v 0 0 q 0,0.29 -0.17,0.51 v 0 0 q -0.17,0.21 -0.43,0.21 v 0 0 q -0.25,0 -0.41,-0.16 v 0 0 Q 25.63,9.49 25.63,9.24 v 0 0 q 0,-0.25 0.14,-0.41 v 0 0 q 0.07,-0.07 0.07,-0.12 v 0 0 q 0,-0.07 -0.08,-0.12 v 0 0 Q 25.68,8.54 25.54,8.54 v 0 0 q -0.31,0 -0.63,0.27 v 0 0 Q 24.6,9.09 24.38,9.63 v 0 0 q -0.22,0.53 -0.22,1.28 v 0 2.6 0 q 0,0.13 0.03,0.16 v 0 0 q 0.03,0.04 0.13,0.04 v 0 h 0.71 v 0 q 0.07,0 0.13,0.03 v 0 0 q 0.05,0.04 0.05,0.11 v 0 0 q 0,0.16 -0.18,0.16 v 0 z m 7.92,0.13 v 0 q -0.74,0 -1.37,-0.4 v 0 0 q -0.64,-0.4 -1.01,-1.07 v 0 0 Q 27.5,12 27.5,11.21 v 0 0 q 0,-0.79 0.37,-1.49 v 0 0 q 0.37,-0.69 1.01,-1.1 v 0 0 q 0.63,-0.4 1.37,-0.4 v 0 0 q 0.75,0 1.38,0.4 v 0 0 q 0.64,0.41 1.01,1.1 v 0 0 q 0.37,0.7 0.37,1.49 v 0 0 q 0,0.79 -0.37,1.46 v 0 0 q -0.37,0.67 -1.01,1.07 v 0 0 q -0.63,0.4 -1.38,0.4 z m 0,-0.25 v 0 q 0.7,0 1.11,-0.74 v 0 0 q 0.41,-0.73 0.41,-1.94 v 0 0 q 0,-1.21 -0.41,-1.97 v 0 0 Q 30.95,8.48 30.25,8.48 v 0 0 q -0.68,0 -1.09,0.76 v 0 0 q -0.4,0.76 -0.4,1.97 v 0 0 q 0,1.21 0.4,1.94 v 0 0 q 0.41,0.74 1.09,0.74 z m 5.84,0.25 v 0 q -0.08,0 -0.14,-0.06 v 0 0 q -0.07,-0.07 -0.11,-0.15 v 0 L 34.17,8.65 h -0.44 v 0 q -0.14,0 -0.14,-0.14 v 0 0 q 0,-0.15 0.16,-0.15 v 0 h 2.09 v 0 q 0.14,0 0.14,0.15 v 0 0 q 0,0.14 -0.14,0.14 v 0 h -0.71 l 1.3,4.36 v 0 q 0.03,0.07 0.07,0.07 v 0 0 q 0.04,0 0.05,-0.07 v 0 l 1,-3.59 v 0 q 0.01,-0.05 0.01,-0.15 v 0 0 q 0,-0.24 -0.14,-0.43 v 0 0 Q 37.27,8.65 37.09,8.65 v 0 h -0.2 v 0 q -0.14,0 -0.14,-0.14 v 0 0 q 0,-0.15 0.17,-0.15 v 0 h 2.11 v 0 q 0.14,0 0.14,0.15 v 0 0 q 0,0.14 -0.14,0.14 v 0 h -0.52 l 1.29,4.36 v 0 q 0.03,0.07 0.08,0.07 v 0 0 q 0.05,0 0.08,-0.07 v 0 l 0.93,-3.59 v 0 q 0.02,-0.05 0.02,-0.15 v 0 0 q 0,-0.24 -0.13,-0.43 v 0 0 Q 40.64,8.65 40.45,8.65 v 0 H 40.1 v 0 q -0.14,0 -0.14,-0.14 v 0 0 q 0,-0.15 0.14,-0.15 v 0 h 1.77 v 0 q 0.14,0 0.14,0.15 v 0 0 q 0,0.14 -0.14,0.14 v 0 h -0.08 v 0 q -0.34,0 -0.48,0.37 v 0 l -1.41,4.91 v 0 q -0.03,0.1 -0.1,0.15 v 0 0 q -0.07,0.06 -0.14,0.06 v 0 h -0.18 v 0 q -0.18,0 -0.22,-0.21 v 0 l -1.43,-4.47 -1.35,4.47 v 0 q -0.04,0.21 -0.19,0.21 v 0 z m 10.95,0 v 0 q -1.2,0 -2.22,-0.67 v 0 0 Q 43.81,12.8 43.21,11.66 v 0 0 Q 42.62,10.51 42.62,9.18 v 0 0 q 0,-1.33 0.59,-2.46 v 0 0 q 0.6,-1.13 1.61,-1.8 v 0 0 q 1.02,-0.66 2.22,-0.66 v 0 0 q 1.02,0 1.93,0.49 v 0 0 Q 49.1,4.8 49.21,4.8 v 0 0 q 0.29,0 0.53,-0.19 v 0 0 Q 49.81,4.52 49.87,4.5 v 0 0 q 0.05,-0.02 0.15,-0.02 v 0 0 q 0.1,0 0.14,0.04 v 0 0 q 0.04,0.04 0.04,0.14 v 0 l 0.07,2.09 v 0 q 0,0.08 -0.04,0.13 v 0 0 q -0.05,0.05 -0.11,0.05 v 0 0 q -0.15,0 -0.21,-0.2 v 0 0 Q 49.52,5.75 48.8,5.18 v 0 0 Q 48.08,4.61 47.04,4.61 v 0 0 q -1.25,0 -2.01,1.1 v 0 0 q -0.76,1.11 -0.76,3.47 v 0 0 q 0,2.4 0.76,3.52 v 0 0 q 0.76,1.12 2.01,1.12 v 0 0 q 0.87,0 1.46,-0.46 v 0 0 q 0.58,-0.47 0.63,-1.29 v 0 -1.39 0 q 0,-0.15 -0.11,-0.26 v 0 0 Q 48.92,10.3 48.76,10.3 v 0 h -0.6 v 0 q -0.08,0 -0.15,-0.06 v 0 0 q -0.06,-0.06 -0.06,-0.15 v 0 0 q 0,-0.07 0.06,-0.11 v 0 0 q 0.07,-0.04 0.15,-0.04 v 0 h 3.12 v 0 q 0.09,0 0.16,0.04 v 0 0 q 0.07,0.04 0.07,0.11 v 0 0 q 0,0.09 -0.07,0.15 v 0 0 q -0.07,0.06 -0.16,0.06 v 0 H 50.9 v 0 q -0.15,0 -0.27,0.12 v 0 0 q -0.12,0.11 -0.12,0.26 v 0 2.47 l 0.04,0.77 v 0 q 0,0.08 -0.05,0.15 v 0 0 q -0.06,0.07 -0.13,0.07 v 0 0 q -0.15,0 -0.21,-0.14 v 0 l -0.45,-1.04 h -0.02 v 0 q -0.62,0.59 -1.25,0.89 v 0 0 q -0.63,0.29 -1.4,0.29 z m 5.7,-0.13 v 0 q -0.06,0 -0.08,-0.04 v 0 0 q -0.02,-0.04 -0.02,-0.12 v 0 0 q 0,-0.07 0.03,-0.09 v 0 0 q 0.03,-0.03 0.11,-0.03 v 0 h 0.49 v 0 q 0.13,0 0.2,-0.09 v 0 0 q 0.07,-0.1 0.07,-0.23 v 0 V 9 9 q 0,-0.15 -0.08,-0.23 v 0 0 Q 53.38,8.69 53.27,8.69 v 0 h -0.63 v 0 q -0.17,0 -0.17,-0.15 v 0 0 q 0,-0.18 0.18,-0.18 v 0 h 1.7 v 0 q 0.22,0 0.22,0.22 v 0 1.14 0 q 0,-0.09 0.17,-0.46 v 0 0 q 0.17,-0.37 0.53,-0.7 v 0 0 q 0.37,-0.33 0.95,-0.33 v 0 0 q 0.52,0 0.76,0.25 v 0 0 q 0.24,0.26 0.24,0.61 v 0 0 q 0,0.29 -0.17,0.51 v 0 0 q -0.17,0.21 -0.43,0.21 v 0 0 q -0.26,0 -0.42,-0.16 v 0 0 Q 56.04,9.49 56.04,9.24 v 0 0 q 0,-0.25 0.14,-0.41 v 0 0 q 0.07,-0.07 0.07,-0.12 v 0 0 q 0,-0.07 -0.08,-0.12 v 0 0 Q 56.08,8.54 55.94,8.54 v 0 0 q -0.3,0 -0.62,0.27 v 0 0 q -0.31,0.28 -0.53,0.82 v 0 0 q -0.22,0.53 -0.22,1.28 v 0 2.6 0 q 0,0.13 0.03,0.16 v 0 0 q 0.03,0.04 0.13,0.04 v 0 h 0.71 v 0 q 0.07,0 0.13,0.03 v 0 0 q 0.05,0.04 0.05,0.11 v 0 0 q 0,0.16 -0.18,0.16 v 0 z m 7.92,0.13 v 0 q -0.74,0 -1.38,-0.4 v 0 0 q -0.63,-0.4 -1,-1.07 v 0 0 Q 57.9,12 57.9,11.21 v 0 0 q 0,-0.79 0.38,-1.49 v 0 0 q 0.37,-0.69 1,-1.1 v 0 0 q 0.64,-0.4 1.38,-0.4 v 0 0 q 0.74,0 1.38,0.4 v 0 0 q 0.64,0.41 1.01,1.1 v 0 0 q 0.37,0.7 0.37,1.49 v 0 0 q 0,0.79 -0.37,1.46 v 0 0 q -0.37,0.67 -1.01,1.07 v 0 0 q -0.64,0.4 -1.38,0.4 z m 0,-0.25 v 0 q 0.7,0 1.11,-0.74 v 0 0 q 0.4,-0.73 0.4,-1.94 v 0 0 q 0,-1.21 -0.4,-1.97 v 0 0 Q 61.36,8.48 60.66,8.48 v 0 0 q -0.68,0 -1.09,0.76 v 0 0 Q 59.16,10 59.16,11.21 v 0 0 q 0,1.21 0.41,1.94 v 0 0 q 0.41,0.74 1.09,0.74 z m 6.18,0.25 v 0 q -0.1,0 -0.18,-0.06 v 0 0 q -0.08,-0.05 -0.1,-0.15 v 0 L 64.48,8.65 h -0.35 v 0 q -0.14,0 -0.14,-0.14 v 0 0 q 0,-0.15 0.14,-0.15 v 0 h 2.1 v 0 q 0.16,0 0.16,0.15 v 0 0 q 0,0.14 -0.14,0.14 v 0 h -0.63 l 1.61,4.36 v 0 q 0.04,0.07 0.11,0.07 v 0 0 q 0.08,0 0.08,-0.07 v 0 l 1.17,-3.59 v 0 Q 68.6,9.37 68.6,9.24 v 0 0 q 0,-0.22 -0.16,-0.41 v 0 0 Q 68.28,8.65 68.04,8.65 v 0 H 67.9 v 0 q -0.15,0 -0.15,-0.14 v 0 0 q 0,-0.15 0.15,-0.15 v 0 h 1.78 v 0 q 0.12,0 0.12,0.15 v 0 0 q 0,0.14 -0.12,0.14 v 0 0 q -0.21,0 -0.36,0.11 v 0 0 q -0.15,0.1 -0.19,0.26 v 0 l -1.79,4.91 v 0 q -0.03,0.1 -0.11,0.15 v 0 0 q -0.09,0.06 -0.18,0.06 v 0 z m 6.39,0 v 0 q -0.7,0 -1.35,-0.32 v 0 0 Q 71.23,13.5 70.81,12.85 v 0 0 q -0.42,-0.66 -0.42,-1.58 v 0 0 q 0,-0.91 0.41,-1.6 v 0 0 q 0.4,-0.68 1.03,-1.05 v 0 0 q 0.62,-0.37 1.26,-0.37 v 0 0 q 0.82,0 1.35,0.4 v 0 0 q 0.53,0.39 0.78,0.97 v 0 0 q 0.25,0.57 0.25,1.06 v 0 0 q 0,0.34 -0.26,0.34 v 0 h -2.93 v 0 q -0.39,0 -0.56,0.05 v 0 0 q -0.17,0.05 -0.17,0.24 v 0 0 q 0,1.11 0.41,1.82 v 0 0 q 0.41,0.7 1.5,0.7 v 0 h 0.04 v 0 q 0.46,-0.01 0.89,-0.26 v 0 0 q 0.43,-0.24 0.87,-0.9 v 0 0 q 0.05,-0.06 0.13,-0.06 v 0 0 q 0.07,0 0.11,0.05 v 0 0 q 0.04,0.04 0,0.12 v 0 0 q -0.05,0.16 -0.32,0.48 v 0 0 q -0.27,0.32 -0.76,0.6 v 0 0 q -0.5,0.28 -1.19,0.28 z m -1.66,-3.47 h 2.5 v 0 q 0.21,0 0.25,-0.04 v 0 0 q 0.03,-0.03 0.03,-0.21 v 0 0 q 0,-0.61 -0.21,-1.26 v 0 0 Q 73.92,8.5 73.18,8.5 v 0 0 q -0.59,0 -1.05,0.54 v 0 0 q -0.46,0.55 -0.56,1.63 z"
         id="path8" />
    </g>
    <g
       style="fill:#ffffff;fill-opacity:1;stroke-width:5.81406;stroke-miterlimit:4;stroke-dasharray:none"
       data-v-fde0c5aa=""
       id="09668405-8713-4446-a68c-0c23fd5ea8db"
       fill="#2e3034"
       transform="matrix(0.51925826,0,0,0.51925826,58.16193,37.27355)">
      <path
         style="fill:#ffffff;fill-opacity:1;stroke-width:5.81406;stroke-miterlimit:4;stroke-dasharray:none"
         d="M 9.7,6.8 C 9.48,6.19 9.16,5.68 8.74,5.25 8.32,4.82 7.83,4.48 7.25,4.26 6.68,4.03 6.02,3.92 5.32,3.92 H 1.89 0.7 v 0.27 c 0,0.15 0.1,0.23 0.28,0.25 h 0.14 c 0.07,0 0.17,0.01 0.31,0.01 0.14,0 0.29,0.02 0.46,0.02 v 8.79 c -0.17,0 -0.32,0.01 -0.46,0.01 -0.14,0 -0.24,0.02 -0.31,0.02 H 0.98 C 0.8,13.3 0.7,13.38 0.7,13.54 v 0.28 h 1.19 3.43 c 0.7,0 1.36,-0.11 1.93,-0.34 C 7.83,13.26 8.32,12.92 8.74,12.49 9.16,12.05 9.48,11.54 9.7,10.92 9.93,10.3 10.05,9.63 10.05,8.86 10.05,8.11 9.93,7.42 9.7,6.8 Z m -0.68,3.92 c -0.2,0.55 -0.45,1 -0.8,1.38 -0.35,0.37 -0.77,0.65 -1.26,0.85 -0.49,0.2 -1.04,0.29 -1.64,0.29 H 2.6 V 4.49 h 2.72 c 0.6,0 1.15,0.1 1.64,0.3 0.49,0.19 0.91,0.47 1.26,0.85 0.35,0.38 0.6,0.83 0.8,1.37 0.19,0.55 0.29,1.17 0.29,1.85 0,0.7 -0.1,1.32 -0.29,1.86 z m 10.51,-6.8 h -1.19 v 0.27 c 0,0.15 0.1,0.23 0.28,0.25 h 0.14 c 0.07,0 0.17,0.01 0.31,0.01 0.14,0 0.29,0.02 0.46,0.02 v 8.79 c -0.17,0 -0.32,0.01 -0.46,0.01 -0.14,0 -0.24,0.02 -0.31,0.02 h -0.14 c -0.18,0.01 -0.27,0.09 -0.27,0.25 v 0.28 h 1.18 5.94 v -0.6 -1.46 h -0.35 c -0.2,0 -0.28,0.13 -0.3,0.35 0,0.03 -0.01,0.08 -0.01,0.18 0,0.1 0,0.24 -0.02,0.45 -0.01,0.21 -0.02,0.35 -0.02,0.48 H 20.24 V 9.09 h 3.95 V 8.51 h -3.95 v -4 h 4.53 c 0.02,0.61 0.05,0.99 0.05,1.12 0.02,0.22 0.1,0.33 0.3,0.33 h 0.35 V 4.51 3.92 Z M 39.77,9.91 C 39.63,9.65 39.44,9.39 39.2,9.21 38.96,9.03 38.71,8.88 38.42,8.75 38.12,8.62 37.8,8.51 37.49,8.41 37.18,8.32 36.88,8.2 36.58,8.11 36.29,7.99 36.02,7.87 35.78,7.71 35.55,7.56 35.36,7.38 35.22,7.15 35.08,6.93 35,6.65 35,6.31 c 0,-0.25 0.06,-0.49 0.15,-0.72 0.1,-0.24 0.24,-0.44 0.42,-0.62 0.19,-0.18 0.41,-0.32 0.69,-0.42 0.28,-0.1 0.59,-0.15 0.95,-0.15 0.67,0 1.29,0.11 1.85,0.35 0.04,0.79 0.07,1.24 0.07,1.31 0.01,0.23 0.1,0.35 0.29,0.35 h 0.34 V 4.38 C 38.88,4 38.04,3.81 37.21,3.81 c -0.46,0 -0.87,0.07 -1.23,0.21 -0.36,0.14 -0.66,0.32 -0.9,0.56 -0.23,0.24 -0.43,0.5 -0.56,0.81 -0.12,0.31 -0.18,0.63 -0.18,0.97 0,0.42 0.07,0.78 0.21,1.06 0.14,0.28 0.34,0.5 0.58,0.7 0.23,0.2 0.49,0.34 0.78,0.46 0.29,0.13 0.62,0.24 0.92,0.34 0.31,0.1 0.61,0.19 0.91,0.29 0.3,0.1 0.56,0.24 0.8,0.39 0.24,0.16 0.42,0.34 0.56,0.56 0.14,0.23 0.21,0.52 0.21,0.87 0,0.32 -0.05,0.63 -0.17,0.91 -0.11,0.28 -0.26,0.52 -0.47,0.73 -0.21,0.21 -0.48,0.38 -0.79,0.49 -0.3,0.13 -0.65,0.17 -1.05,0.17 -0.78,0 -1.44,-0.13 -1.97,-0.38 -0.01,-0.2 -0.01,-0.41 -0.03,-0.63 -0.01,-0.22 -0.01,-0.41 -0.03,-0.56 -0.01,-0.15 -0.01,-0.24 -0.01,-0.25 -0.01,-0.23 -0.11,-0.34 -0.31,-0.34 h -0.33 v 1.85 0.18 0.18 c 0.85,0.37 1.73,0.55 2.66,0.55 0.5,0 0.95,-0.08 1.34,-0.24 0.39,-0.15 0.73,-0.38 0.99,-0.64 0.27,-0.27 0.49,-0.59 0.63,-0.95 0.14,-0.37 0.21,-0.76 0.21,-1.18 0,-0.41 -0.07,-0.74 -0.21,-1.01 z M 51.06,4.44 c 0.18,-0.02 0.26,-0.1 0.26,-0.25 V 3.91 h -1.17 -0.72 -1.19 v 0.28 c 0,0.15 0.1,0.23 0.28,0.25 h 0.14 c 0.07,0 0.17,0.01 0.31,0.01 0.14,0 0.3,0.02 0.46,0.02 v 8.79 c -0.16,0 -0.32,0.01 -0.46,0.01 -0.14,0 -0.24,0.02 -0.31,0.02 h -0.14 c -0.18,0.01 -0.28,0.09 -0.28,0.25 v 0.28 h 1.19 0.72 1.17 v -0.28 c 0,-0.16 -0.08,-0.24 -0.26,-0.25 h -0.14 c -0.07,0 -0.17,-0.02 -0.31,-0.02 -0.14,0 -0.29,-0.01 -0.46,-0.01 V 4.47 c 0.17,0 0.32,-0.02 0.46,-0.02 0.14,0 0.24,-0.01 0.31,-0.01 z m 14.25,4.88 v 0.4 c 0,0.04 0.03,0.08 0.06,0.11 0.02,0.03 0.07,0.04 0.12,0.04 h 1.91 v 2.67 c -0.23,0.13 -0.45,0.24 -0.66,0.34 -0.21,0.1 -0.45,0.2 -0.69,0.27 -0.24,0.07 -0.5,0.12 -0.78,0.15 -0.28,0.03 -0.59,0.04 -0.93,0.04 -0.61,0 -1.17,-0.1 -1.68,-0.31 -0.5,-0.21 -0.93,-0.5 -1.3,-0.88 C 61,11.77 60.72,11.3 60.52,10.74 60.33,10.18 60.21,9.56 60.21,8.86 c 0,-0.68 0.12,-1.3 0.31,-1.85 0.2,-0.54 0.48,-1.02 0.84,-1.4 0.37,-0.37 0.81,-0.67 1.33,-0.88 0.52,-0.21 1.09,-0.31 1.74,-0.31 1.17,0 2.11,0.16 2.8,0.48 0.04,0.91 0.07,1.41 0.07,1.51 0.01,0.23 0.11,0.34 0.31,0.34 h 0.33 V 4.51 C 67.51,4.31 66.95,4.14 66.25,4 65.55,3.86 64.96,3.81 64.46,3.81 63.7,3.81 63.01,3.92 62.4,4.16 61.78,4.4 61.26,4.75 60.83,5.18 60.4,5.61 60.07,6.15 59.84,6.78 59.6,7.39 59.49,8.09 59.49,8.86 c 0,0.77 0.11,1.46 0.35,2.09 0.23,0.63 0.56,1.15 0.98,1.59 0.42,0.45 0.93,0.79 1.52,1.03 0.59,0.23 1.23,0.36 1.95,0.36 0.42,0 0.8,-0.03 1.15,-0.07 0.35,-0.06 0.67,-0.13 0.98,-0.21 0.3,-0.1 0.58,-0.21 0.85,-0.35 0.27,-0.14 0.52,-0.29 0.77,-0.46 V 9.32 Z m 19.96,-5.4 h -0.63 -1.21 v 0.27 c 0,0.15 0.09,0.23 0.28,0.25 h 0.14 c 0.07,0 0.18,0.01 0.32,0.01 0.14,0 0.31,0.02 0.47,0.02 v 7.75 c 0,0.13 0,0.27 0.02,0.41 L 78.25,4.05 C 78.2,3.99 78.18,3.95 78.13,3.93 78.09,3.92 78.05,3.91 77.98,3.91 h -0.35 -1.19 v 0.28 c 0,0.15 0.1,0.23 0.28,0.25 h 0.14 c 0.07,0 0.17,0.01 0.31,0.01 0.14,0 0.29,0.02 0.46,0.02 v 8.79 c -0.17,0 -0.32,0.01 -0.46,0.01 -0.14,0 -0.24,0.02 -0.31,0.02 h -0.14 c -0.18,0.01 -0.28,0.09 -0.28,0.25 v 0.28 h 1.19 0.62 1.21 v -0.28 c 0,-0.16 -0.09,-0.24 -0.28,-0.25 h -0.14 c -0.07,0 -0.19,-0.02 -0.33,-0.02 -0.14,0 -0.3,-0.01 -0.46,-0.01 V 5.49 c 0,-0.13 0,-0.27 -0.02,-0.41 l 6.44,8.6 c 0.07,0.1 0.14,0.14 0.25,0.14 h 0.35 V 4.47 c 0.17,0 0.31,-0.02 0.45,-0.02 0.14,0 0.25,-0.01 0.32,-0.01 h 0.13 c 0.18,-0.02 0.28,-0.1 0.28,-0.25 V 3.92 Z m 23.31,-0.13 c -0.37,0 -0.71,0.07 -1.02,0.19 -0.31,0.11 -0.57,0.28 -0.8,0.49 -0.22,0.21 -0.39,0.43 -0.5,0.71 -0.11,0.28 -0.17,0.59 -0.17,0.91 0,0.41 0.07,0.78 0.24,1.13 0.17,0.35 0.41,0.7 0.74,1.08 -0.33,0.13 -0.63,0.31 -0.92,0.51 -0.3,0.19 -0.55,0.42 -0.76,0.67 -0.21,0.25 -0.38,0.53 -0.5,0.84 -0.13,0.31 -0.17,0.63 -0.17,0.96 0,0.42 0.07,0.79 0.24,1.12 0.17,0.34 0.39,0.62 0.66,0.84 0.26,0.23 0.57,0.41 0.91,0.52 0.33,0.11 0.68,0.17 1.03,0.17 0.37,0 0.72,-0.04 1.05,-0.13 0.34,-0.08 0.66,-0.21 0.95,-0.35 0.3,-0.14 0.56,-0.32 0.82,-0.53 0.25,-0.21 0.49,-0.43 0.7,-0.67 l 1.42,1.41 c 0.07,0.07 0.13,0.12 0.19,0.13 0.05,0.01 0.12,0.03 0.21,0.03 h 0.61 l -2.07,-2.05 c 0.29,-0.42 0.5,-0.86 0.66,-1.33 0.15,-0.46 0.24,-0.92 0.25,-1.35 h -0.38 c -0.05,0 -0.11,0.02 -0.14,0.05 -0.03,0.03 -0.04,0.09 -0.05,0.14 -0.05,0.34 -0.12,0.69 -0.24,1.05 -0.13,0.37 -0.3,0.72 -0.51,1.05 L 107.91,8.3 C 107.51,7.9 107.2,7.53 107,7.18 c -0.19,-0.35 -0.29,-0.73 -0.29,-1.1 0,-0.26 0.05,-0.49 0.14,-0.7 0.08,-0.21 0.21,-0.41 0.38,-0.56 0.16,-0.16 0.36,-0.28 0.58,-0.37 0.23,-0.08 0.49,-0.12 0.77,-0.12 0.28,0 0.51,0.04 0.72,0.14 0.19,0.09 0.36,0.22 0.5,0.36 0.14,0.14 0.24,0.29 0.32,0.45 0.09,0.15 0.14,0.29 0.17,0.42 0.02,0.05 0.04,0.08 0.07,0.11 0.03,0.03 0.07,0.04 0.11,0.04 0.06,0 0.14,0 0.26,-0.03 0.05,-0.01 0.09,-0.02 0.16,-0.04 C 110.88,5.52 110.82,5.26 110.7,5.03 110.57,4.79 110.42,4.58 110.21,4.4 110,4.21 109.75,4.07 109.47,3.96 109.19,3.85 108.89,3.79 108.58,3.79 Z m -3.19,7.45 c 0,-0.28 0.04,-0.54 0.14,-0.8 0.1,-0.25 0.23,-0.49 0.39,-0.71 0.17,-0.22 0.4,-0.43 0.65,-0.62 0.25,-0.18 0.52,-0.33 0.82,-0.46 0.03,0.03 0.06,0.04 0.09,0.07 l 3.2,3.17 c -0.18,0.22 -0.36,0.42 -0.57,0.6 -0.21,0.18 -0.45,0.33 -0.7,0.47 -0.25,0.14 -0.53,0.24 -0.83,0.31 -0.29,0.07 -0.6,0.11 -0.92,0.11 -0.27,0 -0.53,-0.05 -0.8,-0.14 -0.26,-0.08 -0.5,-0.21 -0.73,-0.39 -0.22,-0.18 -0.39,-0.4 -0.53,-0.67 -0.14,-0.27 -0.21,-0.57 -0.21,-0.94 z M 140.92,6.8 C 140.7,6.19 140.38,5.68 139.96,5.25 139.54,4.82 139.05,4.48 138.47,4.26 137.9,4.03 137.24,3.92 136.54,3.92 h -3.43 -1.19 v 0.27 c 0,0.15 0.1,0.23 0.28,0.25 h 0.14 c 0.07,0 0.17,0.01 0.31,0.01 0.14,0 0.29,0.02 0.46,0.02 v 8.79 c -0.17,0 -0.32,0.01 -0.46,0.01 -0.14,0 -0.24,0.02 -0.31,0.02 h -0.14 c -0.18,0.01 -0.28,0.09 -0.28,0.25 v 0.28 h 1.19 3.43 c 0.7,0 1.36,-0.11 1.93,-0.34 0.58,-0.22 1.07,-0.56 1.49,-0.99 0.42,-0.44 0.74,-0.95 0.96,-1.57 0.23,-0.62 0.35,-1.29 0.35,-2.06 0,-0.75 -0.12,-1.44 -0.35,-2.06 z m -0.68,3.92 c -0.2,0.55 -0.45,1 -0.8,1.38 -0.35,0.37 -0.77,0.65 -1.26,0.85 -0.49,0.2 -1.04,0.29 -1.64,0.29 h -2.71 V 4.49 h 2.71 c 0.6,0 1.15,0.1 1.64,0.3 0.49,0.19 0.91,0.47 1.26,0.85 0.35,0.38 0.6,0.83 0.8,1.37 0.19,0.55 0.29,1.17 0.29,1.85 0,0.7 -0.1,1.32 -0.29,1.86 z m 10.51,-6.8 h -1.19 v 0.27 c 0,0.15 0.1,0.23 0.28,0.25 h 0.14 c 0.07,0 0.17,0.01 0.31,0.01 0.14,0 0.29,0.02 0.46,0.02 v 8.79 c -0.17,0 -0.32,0.01 -0.46,0.01 -0.14,0 -0.24,0.02 -0.31,0.02 h -0.14 c -0.18,0.01 -0.26,0.09 -0.26,0.25 v 0.28 h 1.17 5.94 v -0.6 -1.46 h -0.35 c -0.2,0 -0.28,0.13 -0.3,0.35 0,0.03 -0.01,0.08 -0.01,0.18 0,0.1 0,0.24 -0.01,0.45 -0.02,0.21 -0.03,0.35 -0.03,0.48 h -4.52 V 9.09 h 3.94 V 8.51 h -3.94 v -4 h 4.52 c 0.03,0.61 0.05,0.99 0.05,1.12 0.02,0.22 0.1,0.33 0.3,0.33 h 0.35 V 4.51 3.92 Z m 23.42,0 h -0.56 -0.02 -1.47 v 0.27 c 0,0.15 0.08,0.23 0.26,0.25 h 0.13 c 0.05,0 0.14,0.01 0.26,0.01 0.13,0 0.27,0.02 0.42,0.02 l -3.2,7.85 c -0.09,0.21 -0.16,0.43 -0.21,0.69 -0.06,-0.24 -0.13,-0.48 -0.21,-0.69 l -3.24,-7.85 c 0.16,0 0.31,-0.02 0.44,-0.02 0.12,0 0.21,-0.01 0.26,-0.01 h 0.12 c 0.18,-0.02 0.28,-0.1 0.28,-0.25 V 3.92 h -1.5 -0.56 -0.6 v 0.27 c 0,0.15 0.09,0.23 0.28,0.25 h 0.09 c 0.05,0 0.12,0.01 0.19,0.01 0.07,0 0.16,0.02 0.26,0.02 l 3.87,9.35 h 0.63 l 3.86,-9.35 c 0.1,0 0.2,-0.02 0.27,-0.02 0.07,0 0.14,-0.01 0.18,-0.01 h 0.08 c 0.18,-0.02 0.28,-0.1 0.28,-0.25 V 3.92 Z m 9.83,0 h -1.19 v 0.27 c 0,0.15 0.1,0.23 0.28,0.25 h 0.14 c 0.07,0 0.17,0.01 0.31,0.01 0.14,0 0.29,0.02 0.46,0.02 v 8.79 c -0.17,0 -0.32,0.01 -0.46,0.01 -0.14,0 -0.24,0.02 -0.31,0.02 h -0.14 c -0.18,0.01 -0.26,0.09 -0.26,0.25 v 0.28 h 1.17 5.94 v -0.6 -1.46 h -0.35 c -0.2,0 -0.28,0.13 -0.3,0.35 0,0.03 -0.01,0.08 -0.01,0.18 0,0.1 0,0.24 -0.01,0.45 -0.02,0.21 -0.03,0.35 -0.03,0.48 h -4.52 V 9.09 h 3.94 V 8.51 h -3.94 v -4 h 4.52 c 0.03,0.61 0.05,0.99 0.05,1.12 0.02,0.22 0.1,0.33 0.3,0.33 h 0.35 V 4.51 3.92 Z m 20.89,8.05 c -0.2,0 -0.28,0.11 -0.29,0.34 0,0.01 0,0.07 -0.02,0.12 -0.01,0.06 -0.01,0.16 -0.03,0.28 -0.01,0.13 -0.02,0.3 -0.04,0.49 h -4.09 V 4.47 c 0.17,0 0.31,-0.02 0.45,-0.02 0.14,0 0.25,-0.01 0.32,-0.01 h 0.13 c 0.18,-0.02 0.28,-0.1 0.28,-0.25 V 3.92 h -1.18 -0.71 -1.19 v 0.27 c 0,0.15 0.1,0.23 0.28,0.25 h 0.14 c 0.07,0 0.17,0.01 0.31,0.01 0.14,0 0.29,0.02 0.46,0.02 v 8.79 c -0.17,0 -0.32,0.01 -0.46,0.01 -0.14,0 -0.24,0.02 -0.31,0.02 h -0.14 c -0.18,0.01 -0.28,0.09 -0.28,0.25 v 0.28 h 1.19 5.28 0.12 0.13 v -0.27 -0.56 -1.02 h -0.28 z m 17.49,-3.11 c 0,-0.75 -0.13,-1.45 -0.35,-2.07 -0.23,-0.62 -0.55,-1.15 -0.97,-1.6 -0.42,-0.44 -0.91,-0.79 -1.48,-1.03 -0.58,-0.24 -1.24,-0.37 -1.94,-0.37 -0.7,0 -1.33,0.13 -1.9,0.37 -0.57,0.24 -1.08,0.59 -1.5,1.03 -0.42,0.45 -0.74,0.98 -0.96,1.6 -0.23,0.62 -0.35,1.32 -0.35,2.07 0,0.77 0.12,1.47 0.35,2.09 0.22,0.61 0.54,1.15 0.96,1.59 0.42,0.45 0.93,0.79 1.5,1.03 0.57,0.23 1.2,0.36 1.9,0.36 0.7,0 1.36,-0.13 1.94,-0.36 0.57,-0.24 1.06,-0.58 1.48,-1.03 0.42,-0.44 0.74,-0.98 0.97,-1.59 0.22,-0.62 0.35,-1.32 0.35,-2.09 z m -0.76,0 c 0,0.7 -0.08,1.32 -0.28,1.86 -0.2,0.55 -0.46,1.03 -0.81,1.4 -0.35,0.38 -0.77,0.69 -1.26,0.89 -0.49,0.19 -1.02,0.29 -1.63,0.29 -0.58,0 -1.12,-0.1 -1.61,-0.29 -0.49,-0.2 -0.91,-0.51 -1.26,-0.89 -0.35,-0.37 -0.63,-0.85 -0.82,-1.4 -0.2,-0.54 -0.28,-1.16 -0.28,-1.86 0,-0.68 0.08,-1.31 0.28,-1.86 0.19,-0.55 0.47,-1.02 0.82,-1.4 0.35,-0.38 0.77,-0.69 1.26,-0.88 0.49,-0.2 1.03,-0.31 1.61,-0.31 0.61,0 1.14,0.11 1.63,0.31 0.49,0.19 0.91,0.5 1.26,0.88 0.35,0.38 0.61,0.85 0.81,1.4 0.2,0.55 0.28,1.18 0.28,1.86 z m 15.26,-4.18 c -0.59,-0.51 -1.47,-0.76 -2.63,-0.76 h -2.41 -1.19 v 0.27 c 0,0.15 0.1,0.23 0.28,0.25 h 0.14 c 0.07,0 0.17,0.01 0.31,0.01 0.14,0 0.29,0.02 0.46,0.02 v 8.79 c -0.17,0 -0.32,0.01 -0.46,0.01 -0.14,0 -0.24,0.02 -0.31,0.02 h -0.14 c -0.18,0.01 -0.28,0.09 -0.28,0.25 v 0.28 h 1.19 0.71 1.18 v -0.28 c 0,-0.16 -0.1,-0.24 -0.28,-0.25 h -0.13 c -0.07,0 -0.18,-0.02 -0.32,-0.02 -0.14,0 -0.28,-0.01 -0.45,-0.01 V 9.83 h 1.7 c 0.54,0 1.03,-0.09 1.47,-0.23 0.43,-0.15 0.8,-0.35 1.1,-0.61 0.31,-0.27 0.55,-0.58 0.7,-0.94 0.17,-0.36 0.24,-0.76 0.24,-1.19 0,-0.94 -0.29,-1.68 -0.88,-2.18 z m -0.03,3.13 c -0.12,0.3 -0.31,0.55 -0.54,0.76 -0.24,0.21 -0.54,0.38 -0.89,0.5 -0.35,0.13 -0.74,0.18 -1.17,0.18 h -1.7 V 4.48 h 1.7 c 0.92,0 1.62,0.21 2.1,0.62 0.46,0.4 0.7,0.99 0.7,1.75 0,0.35 -0.07,0.67 -0.2,0.96 z m 20.97,-3.37 c 0.19,-0.02 0.28,-0.1 0.28,-0.25 V 3.92 h -1.17 -0.51 c -0.07,0 -0.11,0 -0.15,0.01 -0.04,0.02 -0.07,0.06 -0.11,0.12 l -3.89,6.87 c -0.05,0.07 -0.07,0.14 -0.1,0.21 -0.03,0.07 -0.06,0.15 -0.09,0.22 -0.05,-0.15 -0.11,-0.29 -0.18,-0.42 l -4,-6.88 c -0.04,-0.06 -0.07,-0.1 -0.11,-0.12 -0.05,-0.01 -0.09,-0.01 -0.16,-0.01 h -0.49 -1.19 v 0.27 c 0,0.15 0.1,0.23 0.28,0.25 h 0.14 c 0.07,0 0.17,0.01 0.31,0.01 0.14,0 0.29,0.02 0.46,0.02 v 8.79 c -0.17,0 -0.32,0.01 -0.46,0.01 -0.14,0 -0.24,0.02 -0.31,0.02 h -0.14 c -0.18,0.01 -0.28,0.09 -0.28,0.25 v 0.28 h 1.19 0.62 1.22 v -0.28 c 0,-0.16 -0.1,-0.24 -0.28,-0.25 h -0.14 c -0.07,0 -0.19,-0.02 -0.33,-0.02 -0.14,0 -0.3,-0.01 -0.47,-0.01 V 5.38 c 0,-0.13 0,-0.26 -0.02,-0.4 l 4.01,6.93 c 0.07,0.13 0.17,0.19 0.28,0.19 h 0.11 c 0.13,0 0.21,-0.06 0.28,-0.19 l 3.89,-6.93 c -0.01,0.14 -0.01,0.27 -0.01,0.4 v 7.88 c -0.17,0 -0.34,0.01 -0.48,0.01 -0.14,0 -0.25,0.02 -0.32,0.02 h -0.14 c -0.18,0.01 -0.28,0.09 -0.28,0.25 v 0.28 h 1.22 0.63 1.17 v -0.28 c 0,-0.16 -0.09,-0.24 -0.28,-0.25 h -0.12 c -0.07,0 -0.18,-0.02 -0.32,-0.02 -0.14,0 -0.28,-0.01 -0.45,-0.01 V 4.47 c 0.17,0 0.31,-0.02 0.45,-0.02 0.14,0 0.25,-0.01 0.32,-0.01 z m 9.82,-0.52 h -1.19 v 0.27 c 0,0.15 0.1,0.23 0.28,0.25 h 0.14 c 0.07,0 0.17,0.01 0.31,0.01 0.14,0 0.29,0.02 0.46,0.02 v 8.79 c -0.17,0 -0.32,0.01 -0.46,0.01 -0.14,0 -0.24,0.02 -0.31,0.02 h -0.14 c -0.18,0.01 -0.27,0.09 -0.27,0.25 v 0.28 h 1.18 5.93 v -0.6 -1.46 h -0.35 c -0.19,0 -0.28,0.13 -0.29,0.35 0,0.03 -0.01,0.08 -0.01,0.18 0,0.1 0,0.24 -0.02,0.45 -0.01,0.21 -0.03,0.35 -0.03,0.48 h -4.52 V 9.09 h 3.95 V 8.51 h -3.95 v -4 h 4.52 c 0.03,0.61 0.06,0.99 0.06,1.12 0.01,0.22 0.1,0.33 0.29,0.33 h 0.35 V 4.51 3.92 Z m 23.35,0 h -0.63 -1.22 v 0.27 c 0,0.15 0.1,0.23 0.28,0.25 h 0.14 c 0.07,0 0.18,0.01 0.32,0.01 0.14,0 0.31,0.02 0.48,0.02 v 7.75 c 0,0.13 0,0.27 0.01,0.41 l -6.41,-8.58 c -0.04,-0.06 -0.07,-0.1 -0.11,-0.12 -0.04,-0.01 -0.08,-0.02 -0.15,-0.02 h -0.35 -1.19 v 0.28 c 0,0.15 0.09,0.23 0.28,0.25 h 0.14 c 0.07,0 0.16,0.01 0.3,0.01 0.14,0 0.3,0.02 0.47,0.02 v 8.79 c -0.17,0 -0.33,0.01 -0.47,0.01 -0.14,0 -0.23,0.02 -0.3,0.02 h -0.14 c -0.19,0.01 -0.28,0.09 -0.28,0.25 v 0.28 h 1.19 0.61 1.22 v -0.28 c 0,-0.16 -0.1,-0.24 -0.28,-0.25 h -0.14 c -0.07,0 -0.2,-0.02 -0.34,-0.02 -0.14,0 -0.29,-0.01 -0.46,-0.01 V 5.49 c 0,-0.13 0,-0.27 -0.01,-0.41 l 6.44,8.6 c 0.07,0.1 0.14,0.14 0.25,0.14 h 0.35 V 4.47 c 0.17,0 0.31,-0.02 0.45,-0.02 0.14,0 0.25,-0.01 0.32,-0.01 h 0.13 c 0.18,-0.02 0.28,-0.1 0.28,-0.25 V 3.92 Z m 16.73,0 h -0.2 -7.29 -0.21 -0.1 v 2.04 h 0.35 c 0.2,0 0.28,-0.11 0.3,-0.33 0,-0.1 0.02,-0.46 0.05,-1.11 h 2.9 v 8.74 c -0.17,0 -0.31,0.01 -0.45,0.01 -0.14,0 -0.25,0.02 -0.32,0.02 h -0.13 c -0.18,0.01 -0.28,0.09 -0.28,0.25 v 0.28 h 1.18 0.71 1.19 v -0.28 c 0,-0.16 -0.09,-0.24 -0.28,-0.25 H 305 c -0.07,0 -0.16,-0.02 -0.3,-0.02 -0.14,0 -0.3,-0.01 -0.47,-0.01 V 4.52 h 2.89 c 0.04,0.72 0.05,1.08 0.05,1.11 0.02,0.22 0.12,0.33 0.31,0.33 h 0.34 V 3.92 Z"
         id="path20" />
    </g>
  </g>
</svg>
